<svg xmlns="http://www.w3.org/2000/svg" viewBox="0 0 53.44 80.97"><defs><style>.cls-1{fill:#99549f;}.cls-2{fill:#f59222;}</style></defs><title>Asset 14</title><g id="Layer_2" data-name="Layer 2"><g id="Layer_1-2" data-name="Layer 1"><path id="_Compound_Path_" data-name="&lt;Compound Path&gt;" class="cls-1" d="M15.8,34.65c1.73-3.66,6.59-6.16,11-6.24a13.71,13.71,0,0,1,4.31.54c.57.17.82,0,1.06-.49q3.47-7.24,7-14.45c.29-.59.22-.91-.4-1.1s-.57-.54-.32-1Q41.19,6.2,43.91.52c.26-.54.48-.65,1-.37q4,2,8,3.88c.52.25.57.48.33,1q-2.79,5.7-5.52,11.42c-.27.56-.55.69-1,.34s-.84-.09-1.09.44q-3.43,7.15-6.91,14.27c-.31.62-.24.92.32,1.37,3.2,2.56,5.47,5.71,6,9.9.43,3.71-1.12,6.68-3.54,9.31a18.7,18.7,0,0,1-3.16,2.83A.78.78,0,0,0,38,55.94c1,3.35,1.72,6.75,1,10.25-1.3,6.47-4.58,11.48-11,13.8-4.55,1.64-9.13,1.07-13.57-.6A24.09,24.09,0,0,1,3.94,72.19,16.51,16.51,0,0,1,3,52a20.45,20.45,0,0,1,10-7.71,1.44,1.44,0,0,0,1.13-1.67,18.29,18.29,0,0,1,.58-5.24c.12-.5,1.29-3.14,1.44-3.63m-.35,1.76,10.36-4.92"/><circle id="_Path_" data-name="&lt;Path&gt;" class="cls-2" cx="22.69" cy="56.21" r="11.19" transform="translate(-26.1 20.24) rotate(-31.61)"/></g></g></svg>