<?xml version="1.0" encoding="utf-8"?>
<!-- Generator: Adobe Illustrator 19.1.0, SVG Export Plug-In . SVG Version: 6.00 Build 0)  -->
<svg version="1.1" id="Layer_1" xmlns="http://www.w3.org/2000/svg" xmlns:xlink="http://www.w3.org/1999/xlink" x="0px" y="0px"
	 viewBox="-429 231 100 100" style="enable-background:new -429 231 100 100;" xml:space="preserve">
<style type="text/css">
	.st1{fill:#9854a0;}
	.st2{fill:#FFFFFF;}
</style>
<path class="st0" d="M-797.5,683.1c0-0.3,0-0.5,0-0.6V683.1z"/>
<circle class="st1" cx="-379" cy="281" r="50"/>
<g>
	<g>
		<g>
			<path id="XMLID_12_" class="st2" d="M-391.9,270.1c0,3.1-0.6,3.7-2.9,3c-0.5-0.2-0.6-0.5-0.6-1.1c0-0.7,0.1-1.5,0-2.3
				c-0.2-2.1,0.4-2.6,1.9-2.7C-391.5,267-391.9,268.6-391.9,270.1z"/>
			<path id="XMLID_11_" class="st2" d="M-391.8,250.1c0,3.5-0.9,4.3-2.9,3.5c-0.5-0.2-0.5-0.6-0.5-1.2c0-0.7,0.1-1.5,0-2.3
				c-0.2-1.9,0.3-2.5,1.8-2.6C-391.5,247.4-391.8,249-391.8,250.1z"/>
			<path id="XMLID_10_" class="st2" d="M-395.4,260.3c0-2.8,1-3.7,3-2.9c0.5,0.2,0.5,0.5,0.5,1c0,0.8-0.1,1.7,0,2.5
				c0.2,2.1-0.3,2.8-1.9,2.6C-395.6,263.2-395.4,264.1-395.4,260.3z"/>
		</g>
		<g>
			<path id="XMLID_9_" class="st2" d="M-364.5,270.4c0.1-1.5-0.5-3.4,1.6-3.2c1.5,0.1,2.1,0.7,1.8,2.7c0,0.2,0,0.3,0,0.5
				c0.2,2,0,3.1-1.9,3.1C-365,273.5-364.4,271.9-364.5,270.4z"/>
			<path id="XMLID_8_" class="st2" d="M-361,260.6c0,3-0.6,3.7-2.9,3c-0.5-0.2-0.6-0.5-0.6-1.1c0-0.7,0.1-1.5,0-2.3
				c-0.3-2.2,0.4-2.7,2-2.8C-360.4,257.4-361.1,259.2-361,260.6z"/>
			<path id="XMLID_7_" class="st2" d="M-364.5,250.8c0-2.8,1-3.8,3-2.9c0.5,0.2,0.5,0.5,0.5,1c0,0.7-0.1,1.5,0,2.3
				c0.3,2.2-0.4,3-2,2.7C-364.5,253.7-364.5,253.9-364.5,250.8z"/>
		</g>
	</g>
	<path class="st2" d="M-347.2,331c-0.5-2.3-1.3-4.5-2.6-6.8c-4.5-7.4-11.5-11.4-19.7-13.3c-1.5-0.4-1.8-0.8-1.8-2.3
		c0.2-10.8,0.4-21.7,0.5-32.7c0-1.3,0.2-2,1.6-1.7c1.3,0.2,1.6-0.3,1.6-1.5c0.2-8.7,0.4-17.5,0.5-26.2c0-1.1-0.3-1.5-1.5-1.5
		c-6.1,0-12.2-0.1-18.3-0.3c-1.3-0.1-1.5,0.4-1.5,1.5c-0.1,8.6-0.3,17.3-0.5,25.9c0,1.1,0.2,1.9,1.5,1.6c1.4-0.2,1.7,0.4,1.7,1.7
		c-0.3,11-0.5,22-0.5,33.1c0,1.1-0.4,1.6-1.5,1.9c-3,0.5-5.8,1.5-8.6,2.7c-7,3.4-13.1,10.5-14.7,17.6L-347.2,331L-347.2,331z"/>
</g>
</svg>
