<svg xmlns="http://www.w3.org/2000/svg" viewBox="0 0 104.33 80.42"><defs><style>.cls-1{fill:#f05c22;}</style></defs><title>Asset 6 1</title><g id="Layer_2" data-name="Layer 2"><g id="Layer_1-2" data-name="Layer 1"><path class="cls-1" d="M102.77,58.57l-9.12-2.17c3.81-9.2-.32-23.41-10.79-34.18S58.54,7,49.23,10.39l-2-9.13C59.9-2.65,76.79,2.65,89.52,15.74S107.12,46,102.77,58.57Z"/><path class="cls-1" d="M85,54.36,76.1,52.24c.39-5.42-2-11.81-6.84-16.79S58.47,28,53.14,28.12l-2-9c8.32-.85,17.67,2.54,24.77,9.85S86.26,46,85,54.36Z"/><path class="cls-1" d="M8,47.72c0-.27,0-.49,0-.59Z"/><polygon class="cls-1" points="2.63 53.88 2.63 53.88 2.63 53.88 2.63 53.88"/><path id="_Path_" data-name="&lt;Path&gt;" class="cls-1" d="M20.32,17.87c-.42-.54-1.27-.93-.2-1.8.77-.62,1.2-.64,1.71.16a.8.8,0,0,0,.14.16c.68.61,1,1,0,1.87S20.8,18.36,20.32,17.87Z"/><path id="_Path_2" data-name="&lt;Path&gt;" class="cls-1" d="M8.29,28.49c.94,1.05.84,1.54-.41,2.25a.42.42,0,0,1-.63-.12,6.87,6.87,0,0,0-.72-.79c-.74-.62-.67-1,0-1.74C7.52,27.21,7.82,28,8.29,28.49Z"/><path id="_Path_3" data-name="&lt;Path&gt;" class="cls-1" d="M2.14,21.61c1.06,1.18.91,1.86-.29,2.45-.31.15-.45,0-.62-.17A8.31,8.31,0,0,0,.5,23.1c-.69-.58-.66-1,0-1.66C1.47,20.51,1.82,21.21,2.14,21.61Z"/><path id="_Path_4" data-name="&lt;Path&gt;" class="cls-1" d="M3.63,26.57c-.87-1-.7-1.68.49-2.26a.39.39,0,0,1,.54.12,8.42,8.42,0,0,0,.79.86c.73.61.74,1.1-.07,1.69S4.78,27.85,3.63,26.57Z"/><path id="_Path_5" data-name="&lt;Path&gt;" class="cls-1" d="M18.94,13c.93,1,.83,1.55-.43,2.27-.3.17-.44.07-.62-.13a6.1,6.1,0,0,0-.71-.78c-.81-.65-.68-1.08.07-1.79C18.2,11.7,18.46,12.57,18.94,13Z"/><path id="_Path_6" data-name="&lt;Path&gt;" class="cls-1" d="M14.27,11.12c-.86-1-.69-1.73.49-2.26a.42.42,0,0,1,.55.12,7.27,7.27,0,0,0,.72.78c.81.65.76,1.17-.09,1.78S15.21,12.17,14.27,11.12Z"/><path class="cls-1" d="M60.06,46.81C57.25,44.94,54,44.34,50.73,44c-.49,0-.7-.18-.81-.67a17.53,17.53,0,0,0-1.34-3.78c-1.44-3.06-3.48-5.49-6.87-6.44-3.85-1.08-7.43-.22-10.82,1.66a.86.86,0,0,1-1.31-.21q-5-5.61-10-11.17c-.37-.41-.58-.74,0-1.11s.48-.6.08-1c-2.69-3-5.35-5.94-8-8.93-.34-.39-.56-.43-1-.06C8.61,14.16,6.51,16,4.4,17.89c-.45.39-.42.63-.05,1q4,4.41,7.95,8.87c.36.4.64.58,1,.09s.69-.42,1.1,0q5,5.67,10.14,11.31a.71.71,0,0,1,0,1.11,13.07,13.07,0,0,0-2,3.57c-1.51,3.88-1.07,9,1.49,11.84h0c.71.7,1.74,1.75,2,1.95a17.42,17.42,0,0,0,4.38,2.39,1.36,1.36,0,0,1,1.05,1.59,19.41,19.41,0,0,0,3.15,11.55,15.62,15.62,0,0,0,18,6.39,22.78,22.78,0,0,0,10.07-6.59c3.05-3.29,5.2-7.08,5.4-11.66C68.45,54.94,65.25,50.27,60.06,46.81Zm-13.24,22a11,11,0,1,1,11-11A11,11,0,0,1,46.82,68.79Z"/></g></g></svg>