<?xml version="1.0" encoding="utf-8"?>
<!-- Generator: Adobe Illustrator 19.1.0, SVG Export Plug-In . SVG Version: 6.00 Build 0)  -->
<svg version="1.1" id="Layer_1" xmlns="http://www.w3.org/2000/svg" xmlns:xlink="http://www.w3.org/1999/xlink" x="0px" y="0px"
	 viewBox="-429 231 100 100" style="enable-background:new -429 231 100 100;" xml:space="preserve">
<style type="text/css">
	.st0{fill:#F59221;}
	.st1{fill:none;}
	.st2{fill:#F59222;}
	.st3{fill:#FFFFFF;}
	.st4{fill:#9854A0;}
</style>
<path class="st0" d="M-2513.5,1607.1c0-0.3,0-0.5,0-0.6V1607.1z"/>
<circle class="st1" cx="-379" cy="281" r="50"/>
<circle class="st2" cx="-379" cy="281" r="50"/>
<g>
	<g>
		<path class="st3" d="M-393.9,283.3l-0.1-0.7C-393.9,282.7-393.9,283-393.9,283.3z"/>
		<path class="st3" d="M-393.9,282.6l0.1,0.7C-393.9,283-393.9,282.7-393.9,282.6z"/>
		<path class="st3" d="M-360.1,301.8c-0.8-3.4-2.9-6.1-5.2-8.8c-0.4-0.4-0.4-0.6-0.2-1.1c0.7-1.2,1.2-2.5,1.7-3.9
			c1.1-3.3,1.2-6.7-0.7-9.8c-2.2-3.5-5.5-5.4-9.5-6.4c-0.7-0.2-0.9-0.4-0.9-1.1c0.1-5.2,0.2-10.4,0.3-15.6c0-0.6,0.1-1,0.8-0.8
			c0.6,0.1,0.8-0.2,0.8-0.7c0.1-4.2,0.2-8.4,0.3-12.5c0-0.5-0.1-0.7-0.7-0.7c-2.9,0-5.8-0.1-8.8-0.2c-0.6-0.1-0.8,0.2-0.8,0.8
			c-0.1,4.1-0.1,8.2-0.2,12.4c0,0.5,0.1,0.9,0.7,0.8c0.6-0.1,0.9,0.2,0.8,0.9c-0.2,5.3-0.2,10.5-0.3,15.8c0,0.5-0.2,0.8-0.7,0.9
			c-1.4,0.2-2.8,0.7-4.1,1.3c-3.9,1.8-7.2,6.1-7.3,10.2c0,0.5,0,1.2,0.1,1.7c0,0.5,0.1,1,0.1,1.2c0.4,1.8,0.9,3.4,1.7,4.9
			c0.4,0.9,0.4,1.3-0.4,2c-3,3.2-5.2,6.7-5.8,11c-1.1,7.6,2.4,14.3,9.2,17.6c3.9,1.9,8.1,2.5,12.3,2.1c4.6-0.4,9-1.8,12.3-5.1
			C-359.5,314-358.7,308.1-360.1,301.8z M-393.9,282.6c0,0.2,0.1,0.4,0.1,0.7L-393.9,282.6z M-371.4,304.6
			c-2.7,4.1-8.3,5.3-12.4,2.5c-4.1-2.7-5.3-8.3-2.5-12.4c2.7-4.1,8.3-5.3,12.4-2.5S-368.7,300.5-371.4,304.6z"/>
	</g>
	<g>
		<g>
			<path id="XMLID_1667_" class="st3" d="M-384.6,252.4c0,1.5-0.3,1.8-1.4,1.5c-0.3-0.1-0.3-0.3-0.3-0.5c0-0.4,0-0.7,0-1.1
				c-0.1-1,0.2-1.2,0.9-1.3C-384.4,250.9-384.6,251.7-384.6,252.4z"/>
			<path id="XMLID_1666_" class="st3" d="M-384.6,242.9c0,1.7-0.4,2.1-1.4,1.7c-0.3-0.1-0.3-0.4-0.3-0.5c0-0.4,0-0.7,0-1.1
				c-0.1-1,0.1-1.2,0.9-1.2C-384.4,241.6-384.6,242.4-384.6,242.9z"/>
			<path id="XMLID_1665_" class="st3" d="M-386.2,247.8c0-1.3,0.4-1.8,1.4-1.4c0.2,0.1,0.3,0.3,0.3,0.4c0,0.4,0,0.8,0,1.2
				c0.1,1-0.2,1.4-0.9,1.2C-386.3,249.2-386.2,249.5-386.2,247.8z"/>
		</g>
		<g>
			<path id="XMLID_1668_" class="st3" d="M-371.5,252.6c0-0.7-0.3-1.6,0.8-1.5c0.8,0.1,1,0.4,0.9,1.3c0,0.1,0,0.2,0,0.2
				c0.1,1,0,1.5-1,1.5S-371.5,253.3-371.5,252.6z"/>
			<path id="XMLID_1664_" class="st3" d="M-369.9,247.9c0,1.5-0.4,1.8-1.4,1.5c-0.3-0.1-0.3-0.3-0.3-0.5c0-0.4,0-0.7,0-1.1
				c-0.1-1.1,0.2-1.3,1-1.3C-369.6,246.4-369.9,247.2-369.9,247.9z"/>
			<path id="XMLID_1663_" class="st3" d="M-371.5,243.2c0-1.3,0.5-1.8,1.4-1.4c0.2,0.1,0.3,0.3,0.3,0.4c0,0.4,0,0.7,0,1.1
				c0.1,1.1-0.2,1.4-1,1.3C-371.5,244.6-371.5,244.6-371.5,243.2z"/>
		</g>
	</g>
	<g>
		<rect x="-373" y="288.9" class="st3" width="1.1" height="24.5"/>
		<rect x="-375.6" y="288.9" class="st3" width="1.1" height="24.5"/>
		<rect x="-378.2" y="288.9" class="st3" width="1.1" height="24.5"/>
		<rect x="-380.8" y="288.9" class="st3" width="1.1" height="24.5"/>
		<rect x="-383.3" y="288.9" class="st3" width="1.1" height="24.5"/>
		<rect x="-386" y="288.9" class="st3" width="1.1" height="24.5"/>
	</g>
</g>
<path class="st4" d="M-334.9,300.8c2.3-2.5,1.3-7,0.9-9.5c-0.5-3-5.8-7.5-9-7.3c-3.1,0.3-3.5,1.1-4.8,1.7c-0.3,0.2-0.9,1.1-0.9,1.6
	c0,0.4,0.7,1.3,1.2,1.2c2.8-0.5,4.5-1.9,4.6-1.3c0,0.2-4.6,1.6-6.5,2c-0.4,0.1-1.9,0-11.8,0.3c-1,0.1-2,0.7-1.9,1.9
	c0.1,1.2,1.5,2,2.4,1.9c0,0,10.8,0.5,10.4,0.7l-0.8,0.6c-1,0.8-0.6,2.4,0.7,2.6l1.4,0.2l-0.8,0.6c-1.1,0.9-0.6,2.6,0.8,2.9l1.2,0.2
	l-0.6,0.4c-1,0.7-0.5,2.3,0.6,2.8C-346.4,304.7-338.3,304.4-334.9,300.8z"/>
<path class="st4" d="M-415.5,288.5c-4.6-0.6-7.1-6-8.7-8.9c-2-3.4,0.1-12.6,3.7-15s4.6-1.8,6.6-2.3c0.5-0.1,1.9,0.4,2.2,0.8
	c0.3,0.4,0.2,1.9-0.3,2.2c-3.4,1.8-6.4,1.9-6,2.6c0.2,0.3,6.2-2.3,8.7-3.5c0.4-0.2,2.1-1.6,13-9.8c1.2-0.7,2.8-1,3.6,0.3
	c0.8,1.3,0.1,3.2-1,4c0,0-11.2,9.8-10.7,9.5l1.4-0.1c1.8-0.1,2.7,1.9,1.5,3.2l-1.3,1.5h1.3c1.9,0,2.8,2.1,1.5,3.5l-1.2,1.2l1-0.1
	c1.7-0.1,2.4,1.9,1.6,3.4C-400,282.7-408.9,289.3-415.5,288.5z"/>
</svg>
