<?xml version="1.0" encoding="utf-8"?>
<!-- Generator: Adobe Illustrator 19.1.0, SVG Export Plug-In . SVG Version: 6.00 Build 0)  -->
<svg version="1.1" id="Layer_1" xmlns="http://www.w3.org/2000/svg" xmlns:xlink="http://www.w3.org/1999/xlink" x="0px" y="0px"
	 viewBox="-429 231 100 100" style="enable-background:new -429 231 100 100;" xml:space="preserve">
<style type="text/css">
	.st0{fill:#F59221;}
	.st1{fill:none;}
	.st2{fill:#FFFFFF;}
	.st3{fill:#9854A0;}
	.st4{fill:#2EA6DD;}
	.st5{fill:#3EB44A;}
	.st6{fill:#F59222;}
</style>
<path class="st0" d="M-2084.5,1376.1c0-0.3,0-0.5,0-0.6V1376.1z"/>
<circle class="st1" cx="-379" cy="281" r="50"/>
<circle class="st2" cx="-379" cy="281" r="50"/>
<path class="st3" d="M-379,231c-27.6,0-50,22.4-50,50c0,17.2,8.7,32.4,21.9,41.4c2.8-3.9,6.6-7.2,10.8-9.3c2.8-1.2,5.6-2.2,8.6-2.7
	c1.1-0.3,1.5-0.8,1.5-1.9c0-11.1,0.2-22.1,0.5-33.1c0-1.3-0.3-1.9-1.7-1.7c-1.3,0.3-1.5-0.5-1.5-1.6c0.2-8.6,0.4-17.3,0.5-25.9
	c0-1.1,0.2-1.6,1.5-1.5c6.1,0.2,12.2,0.3,18.3,0.3c1.2,0,1.5,0.4,1.5,1.5c-0.1,8.7-0.3,17.5-0.5,26.2c0,1.2-0.3,1.7-1.6,1.5
	c-1.4-0.3-1.6,0.4-1.6,1.7c-0.1,11-0.3,21.9-0.5,32.7c0,1.5,0.3,1.9,1.8,2.3c7.5,1.7,14,5.3,18.5,11.5c13.3-9,22-24.2,22-41.4
	C-329,253.4-351.4,231-379,231z M-391.9,270.1c0,3.1-0.6,3.7-2.9,3c-0.5-0.2-0.6-0.5-0.6-1.1c0-0.7,0.1-1.5,0-2.3
	c-0.2-2.1,0.4-2.6,1.9-2.7C-391.5,267-391.9,268.6-391.9,270.1z M-393.8,263.5c-1.8-0.3-1.6,0.6-1.6-3.2c0-2.8,1-3.7,3-2.9
	c0.5,0.2,0.5,0.5,0.5,1c0,0.8-0.1,1.7,0,2.5C-391.7,263-392.2,263.7-393.8,263.5z M-391.8,250.1c0,3.5-0.9,4.3-2.9,3.5
	c-0.5-0.2-0.5-0.6-0.5-1.2c0-0.7,0.1-1.5,0-2.3c-0.2-1.9,0.3-2.5,1.8-2.6C-391.5,247.4-391.8,249-391.8,250.1z M-363,273.5
	c-2,0-1.4-1.6-1.5-3.1c0.1-1.5-0.5-3.4,1.6-3.2c1.5,0.1,2.1,0.7,1.8,2.7c0,0.2,0,0.3,0,0.5C-360.9,272.4-361.1,273.5-363,273.5z
	 M-361,260.6c0,3-0.6,3.7-2.9,3c-0.5-0.2-0.6-0.5-0.6-1.1c0-0.7,0.1-1.5,0-2.3c-0.3-2.2,0.4-2.7,2-2.8
	C-360.4,257.4-361.1,259.2-361,260.6z M-363,253.9c-1.5-0.2-1.5,0-1.5-3.1c0-2.8,1-3.8,3-2.9c0.5,0.2,0.5,0.5,0.5,1
	c0,0.7-0.1,1.5,0,2.3C-360.7,253.4-361.4,254.2-363,253.9z"/>
<circle class="st4" cx="-386.9" cy="291.8" r="7.8"/>
<circle class="st5" cx="-375" cy="304.2" r="7.8"/>
<circle class="st6" cx="-372.8" cy="283.2" r="7.8"/>
</svg>
