<?xml version="1.0" encoding="utf-8"?>
<!-- Generator: Adobe Illustrator 19.1.0, SVG Export Plug-In . SVG Version: 6.00 Build 0)  -->
<svg version="1.1" id="Layer_1" xmlns="http://www.w3.org/2000/svg" xmlns:xlink="http://www.w3.org/1999/xlink" x="0px" y="0px"
	 viewBox="-429 231 100 100" style="enable-background:new -429 231 100 100;" xml:space="preserve">
<style type="text/css">
	.st0{fill:#F59221;}
	.st1{fill:#FFFFFF;}
</style>
<path class="st0" d="M-797.5,683.1c0-0.3,0-0.5,0-0.6V683.1z"/>
<g>
	<g>
		<path class="st1" d="M-396.1,282.1c0-0.5-0.1-0.9-0.1-1L-396.1,282.1z"/>
		<path class="st1" d="M-357.5,303.3c-0.9-3.9-3.3-7-5.9-10c-0.4-0.4-0.4-0.7-0.2-1.2c0.8-1.4,1.4-2.9,1.9-4.4
			c1.2-3.8,1.4-7.6-0.8-11.2c-2.5-4-6.3-6.2-10.8-7.3c-0.8-0.2-1-0.5-1-1.2c0.1-5.9,0.2-11.9,0.3-17.8c0-0.7,0.1-1.1,0.9-0.9
			c0.7,0.1,0.9-0.2,0.9-0.8c0.1-4.8,0.2-9.6,0.3-14.3c0-0.6-0.1-0.8-0.8-0.8c-3.3,0-6.6-0.1-10-0.2c-0.7-0.1-0.9,0.2-0.9,0.9
			c-0.1,4.7-0.1,9.4-0.2,14.2c0,0.6,0.1,1,0.8,0.9c0.7-0.1,1,0.2,0.9,1c-0.2,6-0.2,12-0.3,18.1c0,0.6-0.2,0.9-0.8,1
			c-1.6,0.2-3.2,0.8-4.7,1.5c-4.5,2.1-8.2,7-8.3,11.6l0,0c0,1.2,0.1,2.9,0.2,3.3c0.4,2,1,3.9,1.9,5.6c0.5,1,0.4,1.5-0.4,2.3
			c-3.4,3.6-5.9,7.6-6.6,12.6c-1.3,8.7,2.7,16.3,10.5,20.1c4.5,2.2,9.2,2.8,14.1,2.4c5.3-0.4,10.3-2,14.1-5.8
			C-356.8,317.2-355.8,310.5-357.5,303.3z M-370.4,306.5c-3.1,4.7-9.5,6-14.2,2.9s-6-9.5-2.8-14.2c3.1-4.7,9.5-6,14.2-2.9
			C-368.5,295.5-367.3,301.8-370.4,306.5z"/>
	</g>
	<g>
		<g>
			<path id="XMLID_1667_" class="st1" d="M-385.4,247c0,1.7-0.3,2-1.6,1.7c-0.3-0.1-0.3-0.3-0.3-0.6c0-0.4,0-0.8,0-1.3
				c-0.1-1.1,0.2-1.4,1-1.5C-385.2,245.3-385.4,246.2-385.4,247z"/>
			<path id="XMLID_1666_" class="st1" d="M-385.4,236.1c0,1.9-0.5,2.4-1.6,1.9c-0.3-0.1-0.3-0.4-0.3-0.6c0-0.4,0-0.8,0-1.3
				c-0.1-1.1,0.1-1.4,1-1.4C-385.2,234.6-385.4,235.5-385.4,236.1z"/>
			<path id="XMLID_1665_" class="st1" d="M-387.3,241.7c0-1.5,0.5-2,1.6-1.6c0.2,0.1,0.3,0.3,0.3,0.5c0,0.5,0,0.9,0,1.4
				c0.1,1.1-0.2,1.6-1,1.4C-387.4,243.3-387.3,243.7-387.3,241.7z"/>
		</g>
		<g>
			<path id="XMLID_1668_" class="st1" d="M-370.5,247.2c0-0.8-0.3-1.8,0.9-1.7c0.9,0.1,1.1,0.4,1,1.5c0,0.1,0,0.2,0,0.2
				c0.1,1.1,0,1.7-1.1,1.7S-370.5,248-370.5,247.2z"/>
			<path id="XMLID_1664_" class="st1" d="M-368.6,241.8c0,1.7-0.4,2-1.6,1.7c-0.3-0.1-0.3-0.3-0.3-0.6c0-0.4,0-0.8,0-1.3
				c-0.1-1.2,0.2-1.5,1.1-1.5C-368.3,240.1-368.6,241-368.6,241.8z"/>
			<path id="XMLID_1663_" class="st1" d="M-370.5,236.5c0-1.5,0.6-2.1,1.6-1.6c0.2,0.1,0.3,0.3,0.3,0.5c0,0.4,0,0.8,0,1.3
				c0.1,1.2-0.2,1.6-1.1,1.5C-370.5,238-370.5,238.1-370.5,236.5z"/>
		</g>
	</g>
	<g>
		<rect x="-372.2" y="288.7" class="st1" width="1.3" height="28"/>
		<rect x="-375.2" y="288.7" class="st1" width="1.3" height="28"/>
		<rect x="-378.1" y="288.7" class="st1" width="1.3" height="28"/>
		<rect x="-381.1" y="288.7" class="st1" width="1.3" height="28"/>
		<rect x="-384" y="288.7" class="st1" width="1.3" height="28"/>
		<rect x="-387" y="288.7" class="st1" width="1.3" height="28"/>
	</g>
</g>
</svg>
