<svg xmlns="http://www.w3.org/2000/svg" viewBox="0 0 104.33 80.42"><defs><style>.cls-1{fill:#f05c22;}</style></defs><title>Asset 9</title><g id="Layer_2" data-name="Layer 2"><g id="Layer_1-2" data-name="Layer 1"><path class="cls-1" d="M1.57,58.57l9.12-2.17C6.87,47.2,11,33,21.48,22.23S45.79,7,55.1,10.39l2-9.13C44.44-2.65,27.54,2.65,14.81,15.74S-2.79,46,1.57,58.57Z"/><path class="cls-1" d="M19.3,54.36l8.93-2.12c-.39-5.42,2-11.81,6.84-16.79s10.8-7.4,16.12-7.33l2-9C44.86,18.26,35.5,21.65,28.4,29S18.08,46,19.3,54.36Z"/><path id="_Path_" data-name="&lt;Path&gt;" class="cls-1" d="M84,17.87c.42-.54,1.27-.93.2-1.8-.77-.62-1.2-.64-1.71.16a.8.8,0,0,1-.14.16c-.68.61-1,1,0,1.87S83.53,18.36,84,17.87Z"/><path id="_Path_2" data-name="&lt;Path&gt;" class="cls-1" d="M96,28.49c-.94,1.05-.84,1.54.41,2.25a.42.42,0,0,0,.63-.12,6.87,6.87,0,0,1,.72-.79c.74-.62.67-1,0-1.74C96.82,27.21,96.51,28,96,28.49Z"/><path id="_Path_3" data-name="&lt;Path&gt;" class="cls-1" d="M102.2,21.61c-1.06,1.18-.91,1.86.29,2.45.31.15.45,0,.62-.17a8.31,8.31,0,0,1,.72-.78c.69-.58.66-1,0-1.66C102.87,20.51,102.52,21.21,102.2,21.61Z"/><path id="_Path_4" data-name="&lt;Path&gt;" class="cls-1" d="M100.7,26.57c.87-1,.7-1.68-.49-2.26a.39.39,0,0,0-.54.12,8.42,8.42,0,0,1-.79.86c-.73.61-.74,1.1.07,1.69S99.56,27.85,100.7,26.57Z"/><path id="_Path_5" data-name="&lt;Path&gt;" class="cls-1" d="M85.39,13c-.93,1-.83,1.55.43,2.27.3.17.44.07.62-.13a6.1,6.1,0,0,1,.71-.78c.81-.65.68-1.08-.07-1.79C86.13,11.7,85.87,12.57,85.39,13Z"/><path id="_Path_6" data-name="&lt;Path&gt;" class="cls-1" d="M90.06,11.12c.86-1,.69-1.73-.49-2.26A.42.42,0,0,0,89,9a7.27,7.27,0,0,1-.72.78c-.81.65-.76,1.17.09,1.78S89.13,12.17,90.06,11.12Z"/><path class="cls-1" d="M36.17,61.41c.2,4.58,2.35,8.37,5.4,11.66a22.78,22.78,0,0,0,10.07,6.59,15.62,15.62,0,0,0,18-6.39,19.41,19.41,0,0,0,3.15-11.55,1.36,1.36,0,0,1,1.05-1.59,17.42,17.42,0,0,0,4.38-2.39c.28-.2,1.31-1.25,2-1.95h0c2.56-2.83,3-8,1.49-11.84a13.07,13.07,0,0,0-2-3.57.71.71,0,0,1,0-1.11q5.08-5.64,10.14-11.31c.41-.47.72-.52,1.1,0s.68.31,1-.09Q96,23.34,100,18.93c.37-.41.4-.65-.05-1-2.11-1.85-4.21-3.73-6.28-5.63-.41-.37-.63-.33-1,.06-2.66,3-5.32,6-8,8.93-.4.44-.4.73.08,1s.37.7,0,1.11q-5,5.57-10,11.17a.86.86,0,0,1-1.31.21c-3.39-1.88-7-2.74-10.82-1.66-3.39.95-5.43,3.38-6.87,6.44a17.53,17.53,0,0,0-1.34,3.78c-.11.49-.32.63-.81.67-3.28.33-6.52.93-9.33,2.8C39.09,50.27,35.89,54.94,36.17,61.41Zm10.35-3.62a11,11,0,1,1,11,11A11,11,0,0,1,46.52,57.79Z"/></g></g></svg>