<?xml version="1.0" encoding="utf-8"?>
<!-- Generator: Adobe Illustrator 19.1.0, SVG Export Plug-In . SVG Version: 6.00 Build 0)  -->
<svg version="1.1" id="Layer_1" xmlns="http://www.w3.org/2000/svg" xmlns:xlink="http://www.w3.org/1999/xlink" x="0px" y="0px"
	 viewBox="-637 231 100 100" style="enable-background:new -637 231 100 100;" xml:space="preserve">
<style type="text/css">
	.st0{fill:#FFFFFF;}
	.st1{fill:#F59221;}
	.st2{fill:none;}
	.st3{fill:#3EB44A;}
	.st4{fill:#F05C22;}
</style>
<circle class="st0" cx="-587" cy="280.9" r="50"/>
<path class="st1" d="M-1226.5,914.1c0-0.3,0-0.5,0-0.6V914.1z"/>
<circle class="st2" cx="-587" cy="281" r="50"/>
<circle class="st2" cx="-587" cy="281" r="50"/>
<g>
	<path class="st3" d="M-636.9,278.1c-0.1,1-0.1,1.9-0.1,2.9c0,0.9,0,1.9,0.1,2.8h99.8c0.1-0.9,0.1-1.9,0.1-2.8c0-1,0-1.9-0.1-2.9
		H-636.9z"/>
	<path class="st3" d="M-630.9,257c-1,1.8-1.9,3.7-2.7,5.7h93.1c-0.8-2-1.7-3.9-2.7-5.7H-630.9z"/>
	<path class="st3" d="M-546.1,252.2c-9.1-12.8-24-21.2-40.9-21.2s-31.8,8.4-40.9,21.2H-546.1z"/>
	<path class="st3" d="M-537.6,273.3c-0.3-2-0.7-3.9-1.3-5.8h-96.3c-0.5,1.9-1,3.8-1.3,5.8H-537.6z"/>
	<path class="st3" d="M-627.9,309.7c9,12.9,24,21.3,40.9,21.3s31.9-8.4,40.9-21.3H-627.9z"/>
	<path class="st3" d="M-636.4,288.6c0.3,2,0.7,3.9,1.3,5.8h96.3c0.5-1.9,1-3.8,1.3-5.8H-636.4z"/>
	<path class="st3" d="M-543.1,304.9c1-1.8,1.9-3.7,2.6-5.7h-93.1c0.8,2,1.6,3.9,2.6,5.7H-543.1z"/>
</g>
<g>
	<path class="st4" d="M-566.3,277.4l-5.4,30c-0.6-0.2-1.2-0.4-1.9-0.4c-0.7-0.1-1.3-0.2-2-0.2c-3.8,0-7,1.9-7.5,4.9
		c-0.6,3.5,2.7,7,7.3,7.9c0.7,0.1,1.3,0.2,2,0.2c3.8,0,7-1.9,7.5-4.9c0-0.2,0-0.6,0-0.8c0.2-0.2,0.2-0.4,0.2-0.8l6.4-34.6
		L-566.3,277.4"/>
	<path class="st4" d="M-590.5,247.6l-6.2,2.3l-12.8,4.8l-6.2,2.3l1.9,5l8.7,23.8c-0.6,0-1.2,0.2-1.9,0.4c-4.4,1.4-7,5.6-5.8,8.9
		c0.9,2.4,3.5,3.8,6.5,3.8c1.2,0,2.4-0.2,3.7-0.7c4.3-1.7,7-5.6,5.8-8.9c0-0.2-0.2-0.6-0.4-0.8c0-0.2-0.2-0.4-0.2-0.6l-10.4-28
		l12.8-4.8l8.7,23.8c-0.6,0-1.2,0.2-1.9,0.4c-4.4,1.7-7,5.6-5.8,8.9c0.9,2.4,3.5,3.8,6.5,3.8c1.2,0,2.4-0.2,3.7-0.7
		c4.4-1.5,7-5.6,6-9.1c0-0.2-0.2-0.6-0.4-0.8c0-0.4-0.2-0.6-0.2-0.8l-10.4-28v-0.2L-590.5,247.6"/>
	<path class="st4" d="M-589.1,252.6l-1.7-4.8L-589.1,252.6z"/>
</g>
</svg>
