<?xml version="1.0" encoding="utf-8"?>
<!-- Generator: Adobe Illustrator 19.1.0, SVG Export Plug-In . SVG Version: 6.00 Build 0)  -->
<svg version="1.1" id="Calque_1" xmlns="http://www.w3.org/2000/svg" xmlns:xlink="http://www.w3.org/1999/xlink" x="0px" y="0px"
	 viewBox="-420 227.7 61.7 70.1" style="enable-background:new -420 227.7 61.7 70.1;" xml:space="preserve">
<style type="text/css">
	.st0{fill:#9854A0;stroke:#FFFFFF;stroke-width:2;stroke-miterlimit:10;}
</style>
<g id="mainRock">
	<path id="_Rectangle_" class="st0" d="M-410.4,249.1L-410.4,249.1c3.8-3.3,9.3-3,12.8,0.8l0,0l21.8,24.2c3.3,3.8,3,9.3-0.8,12.8
		l0,0l-1.9,1.9c-8.7,7.9-22,7.1-29.7-1.6l-3.8-4.1C-421,273-420.1,258.1-410.4,249.1z"/>
	<path id="_Path_3" class="st0" d="M-377.4,261.3l-0.8-1.1c-2.2-2.7-6-3.3-8.7-1.1c0,0,0,0-0.3,0l0,0c-2.7,2.2-3.3,6.3-1.1,9.3
		l0.8,1.1c2.2,2.7,6,3.3,8.7,1.1c0,0,0,0,0.3,0l0,0C-375.8,268.1-375.2,264.1-377.4,261.3z"/>
	<path id="_Path_4" class="st0" d="M-395.9,249.6L-395.9,249.6c-2.4,2.4-2.7,6.3-0.5,9l0.3,0.3c2.2,2.4,6,2.7,8.7,0.5c0,0,0,0,0.3,0
		l0,0c2.4-2.4,2.7-6.5,0.5-9l-0.3-0.3C-389.1,247.5-393.2,247.2-395.9,249.6C-395.7,249.4-395.9,249.6-395.9,249.6z"/>
	<path id="_Path_5" class="st0" d="M-398.7,233.6l-3,2.7c-3.5,3.3-4.6,8.2-2.4,10.9l0,0c2.4,2.7,7.1,2.2,10.9-1.1l3-2.7
		c3.5-3.3,4.6-8.2,2.4-10.9l0,0C-390.2,229.8-394.8,230.3-398.7,233.6z"/>
	<path id="_Path_6" class="st0" d="M-371.2,264.3l-2.7,2.7c-3.3,3-4.1,7.6-1.6,10.3l0,0c2.2,2.7,6.8,2.4,10.3-0.5l2.7-2.7
		c3.3-3,4.1-7.6,1.9-10.3l0,0C-363.3,261.1-367.9,261.3-371.2,264.3z"/>
</g>
</svg>
