<?xml version="1.0" encoding="utf-8"?>
<!-- Generator: Adobe Illustrator 19.1.0, SVG Export Plug-In . SVG Version: 6.00 Build 0)  -->
<svg version="1.1" id="Calque_1" xmlns="http://www.w3.org/2000/svg" xmlns:xlink="http://www.w3.org/1999/xlink" x="0px" y="0px"
	 viewBox="-420 227.7 61.7 70.1" style="enable-background:new -420 227.7 61.7 70.1;" xml:space="preserve">
<style type="text/css">
	.st0{fill:#9854A0;}
</style>
<path class="st0" d="M-398,296.5c-8.6-0.3-14.2-10-17.7-15c-4.2-6.1-1.9-23.4,4.4-28.5c6.3-5,8.3-4.2,11.8-5.4
	c0.8-0.3,3.6,0.4,4.3,1.1s0.8,3.5-0.2,4.2c-6,4-11.6,4.6-10.7,5.8c0.3,0.5,11.2-5.2,15.5-8c0.8-0.5,3.7-3.3,22.4-20.3
	c2.1-1.6,5-2.3,6.8-0.1s0.7,6-1.3,7.7c0,0-19.2,20-18.2,19.5l2.6-0.4c3.2-0.4,5.3,3.1,3.3,5.8l-2.2,2.9l2.5-0.3
	c3.5-0.4,5.6,3.5,3.4,6.3l-1.9,2.5l1.8-0.3c3.1-0.5,4.9,3.1,3.6,6.1C-370.1,283.1-385.6,296.9-398,296.5z"/>
</svg>
