<?xml version="1.0" encoding="utf-8"?>
<!-- Generator: Adobe Illustrator 19.1.0, SVG Export Plug-In . SVG Version: 6.00 Build 0)  -->
<svg version="1.1" id="Calque_1" xmlns="http://www.w3.org/2000/svg" xmlns:xlink="http://www.w3.org/1999/xlink" x="0px" y="0px"
	 viewBox="-431.8 239.2 80.8 58.5" style="enable-background:new -431.8 239.2 80.8 58.5;" xml:space="preserve">
<style type="text/css">
	.st0{fill:#F59222;}
	.st1{fill:#9854A0;}
</style>
<g>
	<path class="st0" d="M-385.9,240.7l-4.3,0c-3.5,0-6.4,3.1-6.4,6.9v3.9h-27.2c-0.1,0-0.1,0-0.2,0c-3.5,0-6.3,2.9-6.3,6.4
		s2.8,6.4,6.3,6.4c0.1,0,0.1,0,0.2,0h24.9c-1.2,1.1-1.9,2.7-1.9,4.4c0,2.8,1.9,5.1,4.6,6c-1.4,1.2-2.3,2.9-2.3,4.7
		c0,2.6,1.7,4.8,4,5.8c-0.1,0.1-0.3,0.3-0.4,0.4c-1.1,1.2-1.7,2.8-1.7,4.5c0,3.5,2.6,6.4,5.9,6.4l14.5,0.1c2.3,0,4.4-1.3,5.5-3.2
		c10.7-4.6,18.1-14,18.1-24.7C-352.6,253.1-367.5,240.7-385.9,240.7z M-424,262c0,0-0.1,0-0.1,0c-2.3-0.1-4.2-2-4.2-4.3
		c0-2.3,1.9-4.2,4.2-4.3c0,0,0.1,0,0.1,0h27.4v8.6H-424z M-398.8,268.5c0-1.6,1-3,2.4-3.7c0.7,2.7,3.2,4.8,6.2,4.8
		c3.2,0,5.8-2.3,6.3-5.4l11.4,0c2.4,0,4.3,2,4.3,4.3c0,2.4-2,4.3-4.3,4.3h-5l-16.4,0C-396.6,272.8-398.8,270.9-398.8,268.5z
		 M-396.5,279.2c0-2.4,2.2-4.3,4.8-4.3l14.1,0h3.5c2.3,0.1,4.2,2,4.2,4.3c0,2.4-1.9,4.3-4.3,4.3h-17.5
		C-394.3,283.5-396.5,281.6-396.5,279.2z M-372.2,291.6c-0.6,1.6-2.2,2.7-4,2.7l-10,0l-4.5,0c-2.1,0-3.8-1.9-3.8-4.3
		c0-1.2,0.4-2.3,1.2-3.1c0.7-0.8,1.7-1.2,2.7-1.2l14.5,0c2.4,0,4.3,2,4.3,4.3C-371.9,290.5-372,291.1-372.2,291.6z M-369.9,290.5
		c0-0.2,0-0.4,0-0.6c0-1.9-0.8-3.6-2.1-4.8c2.4-0.9,4.2-3.2,4.2-6c0-1.9-0.9-3.7-2.2-4.9c2.3-1,3.9-3.2,3.9-5.9
		c0-3.5-2.9-6.4-6.4-6.4l-11.3,0l0-12.7c0-0.6-0.5-1-1-1c0,0-0.1,0-0.1,0c-0.5,0.1-0.9,0.5-0.9,1l0,2v2l0,8.6v1c0,0.4,0,0.7-0.1,1
		c0,0,0,0,0,0c-0.5,1.9-2.2,3.3-4.2,3.3s-3.7-1.4-4.2-3.3c0,0,0,0,0-0.1c-0.1-0.3-0.1-0.7-0.1-1v-15.5c0-2.6,2-4.8,4.4-4.8l4.3,0h0
		c0,0,0.1,0,0.1,0l0,0c17.1,0.1,31.1,11.6,31.1,25.7C-354.7,277.8-360.8,286-369.9,290.5z"/>
	<path class="st1" d="M-371.9,289.9c0,0.6-0.1,1.1-0.3,1.6c-0.6,1.6-2.2,2.7-4,2.7l-10,0l-4.5,0c-2.1,0-3.8-1.9-3.8-4.3
		c0-1.2,0.4-2.3,1.2-3.1c0.7-0.8,1.7-1.2,2.7-1.2l14.5,0C-373.8,285.6-371.9,287.5-371.9,289.9z"/>
	<path class="st1" d="M-369.9,279.2c0,2.4-1.9,4.3-4.3,4.3h-17.5c-2.6,0-4.8-1.9-4.8-4.3c0-2.4,2.2-4.3,4.8-4.3l14.1,0h3.5
		C-371.7,274.9-369.9,276.8-369.9,279.2z"/>
	<path class="st1" d="M-368.2,268.5c0,2.4-2,4.3-4.3,4.3h-5l-16.4,0c-2.7,0-4.8-1.9-4.8-4.3c0-1.6,1-3,2.4-3.7
		c0.7,2.7,3.2,4.8,6.2,4.8c3.2,0,5.8-2.3,6.3-5.4l11.4,0C-370.2,264.1-368.2,266.1-368.2,268.5z"/>
	<path class="st1" d="M-354.7,268.5c0,9.4-6.1,17.6-15.2,22.1c0-0.2,0-0.4,0-0.6c0-1.9-0.8-3.6-2.1-4.8c2.4-0.9,4.2-3.2,4.2-6
		c0-1.9-0.9-3.7-2.2-4.9c2.3-1,3.9-3.2,3.9-5.9c0-3.5-2.9-6.4-6.4-6.4l-11.3,0l0-12.7c0-0.6-0.5-1-1-1c0,0-0.1,0-0.1,0
		c-0.5,0.1-0.9,0.5-0.9,1l0,2v2l0,8.6v1c0,0.4,0,0.7-0.1,1c0,0,0,0,0,0c-0.5,1.9-2.2,3.3-4.2,3.3s-3.7-1.4-4.2-3.3c0,0,0,0,0-0.1
		c-0.1-0.3-0.1-0.7-0.1-1v-15.5c0-2.6,2-4.8,4.4-4.8l4.3,0h0c0,0,0.1,0,0.1,0l0,0C-368.6,242.8-354.7,254.3-354.7,268.5z"/>
	<path class="st1" d="M-396.6,253.5v8.6H-424c0,0-0.1,0-0.1,0c-2.3-0.1-4.2-2-4.2-4.3c0-2.3,1.9-4.2,4.2-4.3c0,0,0.1,0,0.1,0H-396.6
		z"/>
</g>
</svg>
