<?xml version="1.0" encoding="utf-8"?>
<!-- Generator: Adobe Illustrator 19.1.0, SVG Export Plug-In . SVG Version: 6.00 Build 0)  -->
<svg version="1.1" id="Calque_1" xmlns="http://www.w3.org/2000/svg" xmlns:xlink="http://www.w3.org/1999/xlink" x="0px" y="0px"
	 viewBox="-426.3 237.8 57.6 59.2" style="enable-background:new -426.3 237.8 57.6 59.2;" xml:space="preserve">
<style type="text/css">
	.st0{fill:#9854A0;}
</style>
<path class="st0" d="M-382,291.2c-0.1,0.1-0.2,0.1-0.3,0.2l-1.5,0.8l-4.7,2.3c-0.1,0.1-0.3,0.1-0.4,0.2c0,0-0.1,0-0.1,0
	c-3.5,1.3-7.2,2.1-9.5,2.3c-4.5,0.2-18.7-0.2-25.3-13.2c-4.9-9.7-2.2-20.9,4.8-28.8c2.5-2.8,5.4-5,8.1-6.7l0.1-0.1
	c0.1-0.1,0.2-0.2,0.4-0.3l1.6-0.9c1.7-1,3.9-0.5,5,1.2l2.8,4.7l23.3-14.1c2.8-1.7,6.4-0.8,8.1,2c0.8,1.4,1,3,0.7,4.5
	c-0.4,1.5-1.3,2.8-2.7,3.7l-24.6,14.9l0.3,0.4l3.4-2.1c2.2-1.3,5.1-0.6,6.4,1.6l0.4,0.6c1.3,2.2,0.6,5.1-1.6,6.4l-3.7,2.2l0.3,0.6
	l1.2-0.7c2.2-1.3,5.1-0.6,6.4,1.6l0.2,0.3c1.3,2.2,0.6,5.1-1.6,6.4l-1.4,0.9l0.4,0.8c2-0.4,4,0.6,5,2.5
	C-379.2,287.4-380,290-382,291.2z"/>
</svg>
