<?xml version="1.0" encoding="utf-8"?>
<!-- Generator: Adobe Illustrator 19.1.0, SVG Export Plug-In . SVG Version: 6.00 Build 0)  -->
<svg version="1.1" id="Calque_1" xmlns="http://www.w3.org/2000/svg" xmlns:xlink="http://www.w3.org/1999/xlink" x="0px" y="0px"
	 viewBox="-439.7 249 81.9 64.2" style="enable-background:new -439.7 249 81.9 64.2;" xml:space="preserve">
<style type="text/css">
	.st0{fill:#9854A0;}
</style>
<path class="st0" d="M-362.2,297.9c6.4-6.9,3.4-19,2.4-25.8c-1.3-8.2-15.8-20.5-24.3-19.7c-8.5,0.8-9.4,3-12.9,4.7
	c-0.9,0.4-2.5,3.1-2.4,4.2c0,1.2,2,3.5,3.2,3.3c7.5-1.4,12.2-5.2,12.4-3.6c0.1,0.6-12.4,4.4-17.7,5.5c-1,0.2-5.2,0.1-32.1,0.8
	c-2.7,0.3-5.5,2-5.2,5.2c0.3,3.1,4,5.4,6.6,5.3c0,0,29.4,1.5,28.3,1.8l-2.2,1.7c-2.8,2.1-1.7,6.6,1.8,7.2l3.8,0.7l-2.1,1.7
	c-3,2.4-1.7,7.2,2.1,7.8l3.3,0.5l-1.6,1.2c-2.7,2-1.4,6.3,1.8,7.7C-393.3,308.6-371.3,307.9-362.2,297.9z"/>
</svg>
