<?xml version="1.0" encoding="utf-8"?>
<!-- Generator: Adobe Illustrator 19.1.0, SVG Export Plug-In . SVG Version: 6.00 Build 0)  -->
<svg version="1.1" id="Calque_1" xmlns="http://www.w3.org/2000/svg" xmlns:xlink="http://www.w3.org/1999/xlink" x="0px" y="0px"
	 viewBox="-439 249 80.8 64.2" style="enable-background:new -439 249 80.8 64.2;" xml:space="preserve">
<style type="text/css">
	.st0{fill:#9854A0;stroke:#FFFFFF;stroke-width:2;stroke-miterlimit:10;}
</style>
<g id="mainRock">
	<path id="_Rectangle_" class="st0" d="M-393.8,307.7L-393.8,307.7c-5.5-0.2-9.7-4.5-9.8-10.2l0,0l0.5-35.9
		c0.2-5.5,4.5-9.7,10.2-9.8l0,0l3-0.1c13,0.1,23.2,10.8,22.8,23.5l0,6.2C-367.3,296.2-379.1,307.7-393.8,307.7z"/>
	<path id="_Path_3" class="st0" d="M-411.3,273.1l-0.2,1.5c-0.3,3.8,2.4,7.1,6.2,7.4c0,0,0,0,0.2,0.2l0,0c3.8,0.3,7.3-2.6,7.8-6.7
		l0.2-1.5c0.3-3.8-2.4-7.1-6.2-7.4c0,0,0,0-0.2-0.2l0,0C-407.5,266.4-411,269.3-411.3,273.1z"/>
	<path id="_Path_4" class="st0" d="M-405.1,296.5L-405.1,296.5c3.8-0.2,6.9-3,7.2-6.9l0-0.4c0.1-3.6-2.8-6.7-6.6-7c0,0,0,0-0.2-0.2
		l0,0c-3.8,0.2-7.1,3.3-7.2,6.9l0,0.4C-412.2,293.1-409.1,296.4-405.1,296.5C-405.5,296.5-405.1,296.5-405.1,296.5z"/>
	<path id="_Path_5" class="st0" d="M-414.9,311.5l4.5,0c5.3,0,9.9-3.2,10.1-7l0,0c0.1-4-4.1-7.1-9.6-7.3l-4.5,0
		c-5.3,0-9.9,3.2-10.1,7l0,0C-424.6,308.3-420.4,311.3-414.9,311.5z"/>
	<path id="_Path_6" class="st0" d="M-414.1,266l4.2-0.2c4.9,0,9-3.1,9.1-7.2l0,0c0.3-3.8-3.7-7.1-8.8-7.3l-4.2,0.2
		c-4.9,0-9,3.1-9.3,7l0,0C-423,262.8-419,266-414.1,266z"/>
</g>
</svg>
