<?xml version="1.0" encoding="utf-8"?>
<!-- Generator: Adobe Illustrator 19.1.0, SVG Export Plug-In . SVG Version: 6.00 Build 0)  -->
<svg version="1.1" id="Calque_1" xmlns="http://www.w3.org/2000/svg" xmlns:xlink="http://www.w3.org/1999/xlink" x="0px" y="0px"
	 viewBox="-426.6 251.1 68.9 51.8" style="enable-background:new -426.6 251.1 68.9 51.8;" xml:space="preserve">
<style type="text/css">
	.st0{fill:none;stroke:#9854A0;stroke-miterlimit:10;}
</style>
<path class="st0" d="M-389.7,302.9c0.1,0,0.3,0,0.4,0l1.7-0.1l5.2-0.4c0.1,0,0.3,0,0.4-0.1c0,0,0.1,0,0.1,0c3.6-0.7,7.2-1.9,9.3-3
	c4-2.1,15.9-9.8,14.8-24.4c-0.8-10.8-8.9-19-19.1-22.2c-3.6-1.1-7.2-1.5-10.4-1.5h-0.2c-0.1,0-0.3,0-0.5,0h-1.8
	c-2,0-3.6,1.6-3.6,3.6v5.5h-27.3c-3.3,0-5.9,2.6-5.9,5.9c0,1.6,0.7,3.1,1.7,4.2c1.1,1.1,2.6,1.7,4.2,1.7h28.7l0,0.5h-4
	c-2.6,0-4.7,2.1-4.7,4.7v0.7c0,2.6,2.1,4.7,4.7,4.7h4.3l0,0.7h-1.4c-2.6,0-4.7,2.1-4.7,4.7v0.4c0,2.6,2.1,4.7,4.7,4.7h1.7l0,0.9
	c-1.9,0.7-3.1,2.6-3,4.7C-394.1,301-392.1,302.9-389.7,302.9z"/>
</svg>
