<?xml version="1.0" encoding="utf-8"?>
<!-- Generator: Adobe Illustrator 19.1.0, SVG Export Plug-In . SVG Version: 6.00 Build 0)  -->
<svg version="1.1" id="Calque_1" xmlns="http://www.w3.org/2000/svg" xmlns:xlink="http://www.w3.org/1999/xlink" x="0px" y="0px"
	 viewBox="-420 227.7 61.7 70.1" style="enable-background:new -420 227.7 61.7 70.1;" xml:space="preserve">
<style type="text/css">
	.st0{fill:#F59222;}
	.st1{fill:#9854A0;}
</style>
<g>
	<path class="st0" d="M-413.4,287.4c6.8,8.4,18.4,11,29.6,7.8c2.1,0.8,4.5,0.5,6.3-1l11.2-9.2c2.5-2,2.8-5.9,0.5-8.7
		c-1.1-1.3-2.5-2.2-4.1-2.4c-0.2,0-0.4-0.1-0.6-0.1c1.2-2.3,1.1-5.1-0.5-7.1c-1.2-1.5-2.9-2.2-4.7-2.2c1.5-2.4,1.5-5.4-0.3-7.5
		c-1.1-1.3-2.6-2-4.2-2.2l19.3-15.7c0.1,0,0.1-0.1,0.2-0.1c2.7-2.2,3.1-6.2,0.9-8.9c-2.2-2.7-6.2-3.1-8.9-0.9
		c-0.1,0-0.1,0.1-0.1,0.1l-21.1,17.2l-2.4-3c-2.4-2.9-6.6-3.5-9.3-1.3l-3.4,2.7C-419.3,256.4-423,275.5-413.4,287.4z M-383.3,254.6
		l-5.4-6.6l21.3-17.3c0,0,0.1-0.1,0.1-0.1c1.8-1.4,4.5-1.1,6,0.7c1.5,1.8,1.2,4.5-0.5,6c0,0-0.1,0-0.1,0.1L-383.3,254.6z
		 M-378.5,264.7l-12.7,10.3l-3.9,3.2c-1.9,1.5-4.6,1.2-6.1-0.6c-1.5-1.9-1.2-4.6,0.6-6.1l8.9-7.2c2.3,2,5.8,2.2,8.2,0.2
		c2.3-1.9,2.9-5,1.8-7.6c1.6-0.3,3.2,0.2,4.2,1.4C-376,260.1-376.5,263-378.5,264.7z M-373.5,274.4l-13.6,11
		c-1.9,1.5-4.6,1.2-6.1-0.6c-1.5-1.8-1.2-4.5,0.5-6l2.7-2.2l11-8.9c2.1-1.7,5-1.5,6.5,0.3C-371,269.9-371.5,272.7-373.5,274.4z
		 M-384.9,291.9c-1.5-1.9-1.2-4.6,0.6-6.1l11.2-9.2c0.8-0.6,1.8-0.9,2.8-0.7c1.1,0.2,2.1,0.8,2.9,1.7c1.5,1.8,1.4,4.4-0.2,5.8
		l-3.5,2.8l-7.7,6.3c-1.4,1.2-3.3,1.3-4.8,0.4C-384.1,292.7-384.5,292.3-384.9,291.9z M-411.8,286.1c-8.9-11-5.4-28.7,7.9-39.5l0,0
		c0,0,0.1,0,0.1-0.1l0,0l3.4-2.7c1.9-1.5,4.7-1.1,6.4,1l9.8,12.1c0.2,0.3,0.4,0.6,0.5,0.9c0,0,0,0,0,0.1c0.8,1.8,0.4,3.9-1.2,5.2
		c-1.6,1.3-3.8,1.3-5.3,0.1c0,0,0,0,0,0c-0.3-0.2-0.5-0.4-0.7-0.7l-0.7-0.8l-5.4-6.7l-1.3-1.6l-1.3-1.6c-0.3-0.4-0.9-0.5-1.3-0.2
		c0,0-0.1,0-0.1,0.1c-0.4,0.4-0.5,1-0.1,1.4l8,9.8l-8.8,7.1c-2.7,2.2-3.2,6.3-0.9,9c1.7,2,4.3,2.8,6.7,2.1c-0.3,1.8,0.1,3.7,1.3,5.2
		c1.7,2.1,4.5,2.8,7,2c-0.3,1.7,0.2,3.6,1.3,5c0.1,0.2,0.3,0.3,0.4,0.4C-396,295.9-405.9,293.3-411.8,286.1z"/>
	<path class="st1" d="M-384.9,291.9c0.4,0.5,0.8,0.8,1.3,1.1c1.5,0.8,3.4,0.7,4.8-0.4l7.7-6.3l3.5-2.8c1.6-1.3,1.7-3.9,0.2-5.8
		c-0.7-0.9-1.7-1.5-2.9-1.7c-1.1-0.2-2.1,0.1-2.8,0.7l-11.2,9.2C-386.1,287.3-386.4,290-384.9,291.9z"/>
	<path class="st1" d="M-393.2,284.8c1.5,1.9,4.2,2.1,6.1,0.6l13.6-11c2.1-1.7,2.5-4.5,1-6.4c-1.5-1.9-4.4-2-6.5-0.3l-11,8.9
		l-2.7,2.2C-394.4,280.3-394.7,283-393.2,284.8z"/>
	<path class="st1" d="M-401.2,277.5c1.5,1.9,4.3,2.1,6.1,0.6l3.9-3.2l12.7-10.3c2.1-1.7,2.5-4.5,1-6.4c-1-1.2-2.6-1.7-4.2-1.4
		c1.2,2.6,0.5,5.7-1.8,7.6c-2.5,2-6,1.8-8.2-0.2l-8.9,7.2C-402.5,272.9-402.7,275.7-401.2,277.5z"/>
	<path class="st1" d="M-411.8,286.1c5.9,7.3,15.8,9.8,25.7,7.6c-0.1-0.1-0.3-0.3-0.4-0.4c-1.2-1.5-1.6-3.3-1.3-5
		c-2.5,0.8-5.3,0.1-7-2c-1.2-1.5-1.6-3.4-1.3-5.2c-2.4,0.7-5.1-0.1-6.7-2.1c-2.2-2.7-1.8-6.8,0.9-9l8.8-7.1l-8-9.8
		c-0.4-0.4-0.3-1.1,0.1-1.4c0,0,0.1,0,0.1-0.1c0.4-0.3,1-0.2,1.3,0.2l1.3,1.6l1.3,1.6l5.4,6.7l0.7,0.8c0.2,0.3,0.5,0.5,0.7,0.7
		c0,0,0,0,0,0c1.6,1.2,3.8,1.2,5.3-0.1c1.6-1.3,2-3.4,1.2-5.2c0,0,0,0,0-0.1c-0.1-0.3-0.3-0.6-0.5-0.9l-9.8-12.1
		c-1.7-2.1-4.5-2.5-6.4-1l-3.4,2.7l0,0c0,0-0.1,0-0.1,0.1l0,0C-417.2,257.4-420.7,275.1-411.8,286.1z"/>
	<path class="st1" d="M-388.7,248l5.4,6.6l21.3-17.3c0,0,0.1,0,0.1-0.1c1.8-1.5,2-4.2,0.5-6c-1.5-1.8-4.1-2.1-6-0.7
		c0,0-0.1,0.1-0.1,0.1L-388.7,248z"/>
</g>
</svg>
