<?xml version="1.0" encoding="utf-8"?>
<!-- Generator: Adobe Illustrator 19.1.0, SVG Export Plug-In . SVG Version: 6.00 Build 0)  -->
<svg version="1.1" id="Layer_1" xmlns="http://www.w3.org/2000/svg" xmlns:xlink="http://www.w3.org/1999/xlink" x="0px" y="0px"
	 viewBox="-429 231 100 100" style="enable-background:new -429 231 100 100;" xml:space="preserve">
<style type="text/css">
	.st0{fill:#F59221;}
	.st1{fill:none;}
	.st2{fill:#F05C22;}
<!--
    #mainRock{
        animation: mainRock 3s linear 1s infinite;
    }
        
     @keyframes mainRock{
         
        0%, 100%{transform: translate(0%, 0%);}
        10%{transform: translate(50%, -50%);}
        20%{transform: translate(50% -50%);}
        22%{transform: translate(0%, 0%);}
     }
-->
</style>
<path class="st0" d="M-1655.5,1145.1c0-0.3,0-0.5,0-0.6V1145.1z"/>
<circle class="st1" cx="-1016" cy="512" r="50"/>
<circle class="st1" cx="-1016" cy="512" r="50"/>
<g>
	<path class="st2" d="M-357.6,274.7l-5.4,30c-0.6-0.2-1.2-0.4-1.9-0.4c-0.7-0.1-1.3-0.2-2-0.2c-3.8,0-7,1.9-7.5,4.9
		c-0.6,3.5,2.7,7,7.3,7.9c0.7,0.1,1.3,0.2,2,0.2c3.8,0,7-1.9,7.5-4.9c0-0.2,0-0.6,0-0.8c0.2-0.2,0.2-0.4,0.2-0.8l6.4-34.6
		L-357.6,274.7"/>
	<path class="st2" d="M-381.8,244.9l-6.2,2.3l-12.8,4.8l-6.2,2.3l1.9,5l8.7,23.8c-0.6,0-1.2,0.2-1.9,0.4c-4.4,1.4-7,5.6-5.8,8.9
		c0.9,2.4,3.5,3.8,6.5,3.8c1.2,0,2.4-0.2,3.7-0.7c4.3-1.7,7-5.6,5.8-8.9c0-0.2-0.2-0.6-0.4-0.8c0-0.2-0.2-0.4-0.2-0.6l-10.4-28
		l12.8-4.8l8.7,23.8c-0.6,0-1.2,0.2-1.9,0.4c-4.4,1.7-7,5.6-5.8,8.9c0.9,2.4,3.5,3.8,6.5,3.8c1.2,0,2.4-0.2,3.7-0.7
		c4.4-1.5,7-5.6,6-9.1c0-0.2-0.2-0.6-0.4-0.8c0-0.4-0.2-0.6-0.2-0.8l-10.4-28v-0.2L-381.8,244.9"/>
	<path class="st2" d="M-380.4,249.9l-1.7-4.8L-380.4,249.9z"/>
</g>
</svg>
