<?xml version="1.0" encoding="utf-8"?>
<!-- Generator: Adobe Illustrator 19.1.0, SVG Export Plug-In . SVG Version: 6.00 Build 0)  -->
<svg version="1.1" id="Calque_1" xmlns="http://www.w3.org/2000/svg" xmlns:xlink="http://www.w3.org/1999/xlink" x="0px" y="0px"
	 viewBox="-455 254 48 41.9" style="enable-background:new -455 254 48 41.9;" xml:space="preserve">
<g>
	<path d="M-414.2,296h-33.6c-4,0-7.2-3.2-7.2-7.2v-19c0-4,3.2-7.2,7.2-7.2h33.6c4,0,7.2,3.2,7.2,7.2v19
		C-407,292.7-410.2,296-414.2,296z M-447.8,264.5c-2.9,0-5.2,2.3-5.2,5.2v19c0,2.9,2.3,5.2,5.2,5.2h33.6c2.9,0,5.2-2.3,5.2-5.2v-19
		c0-2.9-2.3-5.2-5.2-5.2C-414.2,264.5-447.8,264.5-447.8,264.5z"/>
	<path d="M-413.7,277.9h-34.5c-0.6,0-1-0.4-1-1v-7.2c0-0.6,0.4-1,1-1h34.5c0.6,0,1,0.4,1,1v7.2
		C-412.7,277.4-413.2,277.9-413.7,277.9z M-447.3,275.9h32.5v-5.2h-32.5V275.9z"/>
	<path d="M-417.3,290.4c-2.4,0-4.4-2-4.4-4.4c0-2.4,2-4.4,4.4-4.4c2.4,0,4.4,2,4.4,4.4C-412.9,288.4-414.8,290.4-417.3,290.4z
		 M-417.3,283.6c-1.3,0-2.4,1.1-2.4,2.4s1.1,2.4,2.4,2.4c1.3,0,2.4-1.1,2.4-2.4S-415.9,283.6-417.3,283.6z"/>
	<path d="M-431,290.4c-2.4,0-4.4-2-4.4-4.4c0-2.4,2-4.4,4.4-4.4s4.4,2,4.4,4.4C-426.6,288.4-428.6,290.4-431,290.4z M-431,283.6
		c-1.3,0-2.4,1.1-2.4,2.4s1.1,2.4,2.4,2.4s2.4-1.1,2.4-2.4S-429.7,283.6-431,283.6z"/>
	<path d="M-419.2,264.5c-0.1,0-0.2,0-0.3,0L-447,256c-0.5-0.2-0.8-0.7-0.7-1.3s0.7-0.8,1.2-0.7l27.5,8.5c0.5,0.2,0.8,0.7,0.7,1.2
		C-418.4,264.2-418.8,264.5-419.2,264.5z"/>
</g>
</svg>
