<svg xmlns="http://www.w3.org/2000/svg" viewBox="0 0 54.76 89.33"><defs><style>.cls-1{fill:#28bcbf;stroke:#27bcbf;stroke-miterlimit:10;}</style></defs><title>Asset 5 1</title><g id="Layer_2" data-name="Layer 2"><g id="Layer_1-2" data-name="Layer 1"><path id="_Compound_Path_" data-name="&lt;Compound Path&gt;" class="cls-1" d="M41.17,80.77c-6.28,4.67-14,7.84-21.19,8-22,.63-20.89-26.08-17.79-43.23C5.19,29.46,14,1.12,35.28.51,44.89.23,50.83,6,54.13,13.7l-8.46,4.86C43.59,13.1,40,8.46,33.2,8.65,19,9.06,12.93,35.4,11,45.59c-5.44,29.53,2,35.35,10.5,35.1a23.22,23.22,0,0,0,11.93-4.32l4.77-25.92-16,.46,1.45-7.74,24.61-.71Z"/></g></g></svg>