<?xml version="1.0" encoding="utf-8"?>
<!-- Generator: Adobe Illustrator 19.1.0, SVG Export Plug-In . SVG Version: 6.00 Build 0)  -->
<svg version="1.1" id="Calque_1" xmlns="http://www.w3.org/2000/svg" xmlns:xlink="http://www.w3.org/1999/xlink" x="0px" y="0px"
	 viewBox="0 0 174.3 56.3" style="enable-background:new 0 0 174.3 56.3;" xml:space="preserve">
<style type="text/css">
	.st0{fill:#28BCBF;stroke:#27BCBF;stroke-miterlimit:10;}
	.st1{fill:#3EB44A;stroke:#40B449;stroke-miterlimit:10;}
	.st2{fill:#F05C22;stroke:#F05C22;stroke-miterlimit:10;}
	.st3{fill:#F59222;stroke:#F59222;stroke-miterlimit:10;}
	.st4{fill:#867BB8;stroke:#867BB8;stroke-miterlimit:10;}
	.st5{fill:#F05C22;}
</style>
<path id="XMLID_261_" class="st0" d="M45,41.7c-3.1,2.3-7,3.9-10.6,4C23.3,46,23.9,32.6,25.4,24C26.9,15.9,31.4,1.7,42,1.4
	c4.8-0.1,7.8,2.7,9.5,6.6l-4.2,2.4c-1-2.7-2.8-5.1-6.3-5C33.9,5.7,30.8,18.9,29.9,24c-2.7,14.8,1,17.7,5.3,17.6
	c1.8-0.1,4.3-0.9,6-2.2l2.4-13l-8,0.2l0.7-3.9l12.3-0.4L45,41.7z"/>
<path id="XMLID_222_" class="st1" d="M62.4,20.8h11.4c5.6,0,9.5,2.6,8.1,9.1c-0.9,4.1-4.5,8.2-8.8,9.4l5.3,13.6l-4.2,2.3L68.8,40
	h-6.2l-3,14.3h-4.3L62.4,20.8z M69.1,36.1c4.2,0,7.5-2.4,8.3-6.2c0.6-3-0.7-5.3-4.6-5.3h-6.9l-2.4,11.4H69.1z"/>
<path id="XMLID_219_" class="st2" d="M94.9,34.7l-3.7,10.7l-4.1-0.9L99.4,9.3l5.5-0.8l8.5,31.9l-4.3,2.2l-2.5-9.7L94.9,34.7z
	 M101.8,14l-5.6,16.5l9.4-1.4L101.8,14z"/>
<path id="XMLID_217_" class="st3" d="M158.4,13.6h-9.3l0.8-3.9h22.6l-0.8,3.9h-9.1l-6.3,29.6h-4.3L158.4,13.6z"/>
<path id="XMLID_215_" class="st4" d="M131.7,24.8l-8.9-2.4l1.8-3.5l21.9,5.9l-1.8,3.5l-8.8-2.4l-13.8,27l-4.2-1.1L131.7,24.8z"/>
<circle id="XMLID_214_" class="st5" cx="8.5" cy="34.9" r="8.5"/>
</svg>
