<svg xmlns="http://www.w3.org/2000/svg" viewBox="0 0 124.49 39.77"><defs><style>.cls-1{fill:#28bcbf;stroke:#27bcbf;}.cls-1,.cls-2,.cls-4,.cls-5{stroke-miterlimit:10;}.cls-2{fill:#3eb44a;stroke:#40b449;}.cls-3{fill:#f05c22;}.cls-4{fill:#f393bb;stroke:#f393bb;}.cls-5{fill:#867bb8;stroke:#867bb8;}</style></defs><title>Asset 24</title><g id="Layer_2" data-name="Layer 2"><g id="Layer_1-2" data-name="Layer 1"><path id="_Compound_Path_" data-name="&lt;Compound Path&gt;" class="cls-1" d="M32.28,29.39a14,14,0,0,1-7.63,2.9c-7.93.23-7.52-9.39-6.4-15.56C19.33,10.92,22.5.72,30.16.5c3.46-.1,5.6,2,6.78,4.75L33.9,7c-.75-2-2-3.63-4.49-3.56-5.12.15-7.3,9.63-8,13.29-2,10.63.73,12.72,3.78,12.63a8.36,8.36,0,0,0,4.3-1.55l1.72-9.33-5.77.17L26,15.86l8.86-.25Z"/><path id="_Compound_Path_2" data-name="&lt;Compound Path&gt;" class="cls-2" d="M44.78,14.42h8.17c4,0,6.78,1.89,5.81,6.55a9.48,9.48,0,0,1-6.32,6.74l3.83,9.74-3,1.62L49.39,28.17H44.91L42.75,38.46H39.65Zm4.8,11a5.71,5.71,0,0,0,6-4.43c.46-2.17-.51-3.78-3.28-3.78h-5L45.51,25.4Z"/><path id="_Compound_Path_3" data-name="&lt;Compound Path&gt;" class="cls-3" d="M68.08,24.38,65.43,32l-3-.67L71.35,6.18l3.92-.6,6.09,22.87L78.29,30l-1.77-7Zm5-14.82-4,11.87,6.75-1Z"/><path id="_Compound_Path_4" data-name="&lt;Compound Path&gt;" class="cls-4" d="M113.67,9.27H107l.6-2.77h16.24l-.6,2.77h-6.51l-4.52,21.27h-3.09Z"/><path id="_Compound_Path_5" data-name="&lt;Compound Path&gt;" class="cls-5" d="M94.54,17.28l-6.41-1.73L89.43,13l15.68,4.24-1.3,2.52-6.28-1.7L87.61,37.45l-3-.81Z"/><circle id="_Path_" data-name="&lt;Path&gt;" class="cls-3" cx="6.06" cy="24.51" r="6.06"/></g></g></svg>