<svg xmlns="http://www.w3.org/2000/svg" viewBox="0 0 167.54 45.8"><defs><style>.cls-1{fill:#3b3d3d;opacity:0.29;}.cls-2{fill:#3eb44a;}.cls-3,.cls-4{fill:#f05c22;}.cls-4{stroke:#f05c22;stroke-miterlimit:10;}</style></defs><title>Asset 25</title><g id="Layer_2" data-name="Layer 2"><g id="Layer_1-2" data-name="Layer 1"><rect id="_Rectangle_" data-name="&lt;Rectangle&gt;" class="cls-1" x="83.44" y="-74.23" width="0.97" height="167.22" transform="translate(93.31 -74.54) rotate(90)"/><rect id="_Rectangle_2" data-name="&lt;Rectangle&gt;" class="cls-1" x="83.44" y="-83.12" width="0.97" height="167.22" transform="translate(84.41 -83.44) rotate(90)"/><rect id="_Rectangle_3" data-name="&lt;Rectangle&gt;" class="cls-1" x="83.44" y="-47.54" width="0.97" height="167.22" transform="translate(119.99 -47.85) rotate(90)"/><rect id="_Rectangle_4" data-name="&lt;Rectangle&gt;" class="cls-1" x="83.44" y="-56.44" width="0.97" height="167.22" transform="translate(111.1 -56.75) rotate(90)"/><rect id="_Rectangle_5" data-name="&lt;Rectangle&gt;" class="cls-1" x="83.44" y="-65.33" width="0.97" height="167.22" transform="translate(102.2 -65.65) rotate(90)"/><rect id="_Rectangle_6" data-name="&lt;Rectangle&gt;" class="cls-1" x="83.13" y="-38.3" width="0.97" height="167.22" transform="translate(128.92 -38.3) rotate(90)"/><ellipse id="_Path_" data-name="&lt;Path&gt;" class="cls-2" cx="19.11" cy="27.15" rx="4.99" ry="5.03"/><path class="cls-3" d="M79.27,20.35c0,1.68.18,10.81-6.69,12.48-3.17.77-7-.71-7.28-9.08S68.77,12,72,11.23,79.06,11.93,79.27,20.35ZM67.94,23.11c.09,3,.74,8.13,4.56,7.2S76.72,24,76.63,21s-.75-8.17-4.56-7.24S67.88,20,67.94,23.11Z"/><path class="cls-3" d="M117.44,7.18,130,8.8l-.8,2.27-9.94-1.28-2.06,5.9,8.21,1.06-.8,2.27L116.36,18l-2.43,7,9.94,1.28-.8,2.27-12.52-1.62Z"/><path class="cls-3" d="M138.85,5.12l6.81-.94C149,3.72,151.54,5,151.27,9a8,8,0,0,1-4.49,6.4l4.33,7.76-2.35,1.71-4.46-8.73-3.73.52-.61,8.91-2.58.36Zm5.28,8.69a4.82,4.82,0,0,0,4.45-4.41c.13-1.88-.86-3.13-3.17-2.81l-4.16.57-.51,7.12Z"/><path class="cls-4" d="M44.48,19.92,44,22.32c-.4,1.9-.11,4.35,2.62,4.35,2.16,0,3.88-1.94,4.46-4.67l3.7-17.36h2.41L53.43,22.25c-1,4.56-4.38,6.68-7.48,6.68s-5.32-2.08-4.35-6.79l.47-2.23Z"/><path class="cls-4" d="M91.94,20.26l2.45,15c.33,2,1,3.83,3.37,2.91s2.48-3,2.16-5.06l-2.45-15,1.92-.75L101.92,33a6.24,6.24,0,0,1-3.83,7.13c-2.89,1.12-5-.33-5.51-3.4L90,21Z"/></g></g></svg>