
<svg version="1.1" id="Calque_1" xmlns="http://www.w3.org/2000/svg" xmlns:xlink="http://www.w3.org/1999/xlink" x="0px" y="0px"
	 viewBox="-416 214.8 125.4 132.2" style="enable-background:new -416 214.8 125.4 132.2;" xml:space="preserve">
<style type="text/css">
	.st0{fill:#231F20;}
	.st1{font-family:'MyriadPro-Regular';}
	.st2{font-size:5.1324px;}
	.st3{fill:#F5A4B6;}
	.st4{fill:#28BCBF;stroke:#27BCBF;stroke-width:3;stroke-miterlimit:10;}
	.st5{fill:#736D9F;}
	.st6{fill:#FFFFFF;}
	.st7{opacity:0.76;fill:#FFFFFF;enable-background:new    ;}
	.st8{fill:#F5A4B6;stroke:#FFFFFF;stroke-width:0.25;stroke-miterlimit:10;}
	.st9{fill:#F59222;}
	.st10{fill:#F3D3D9;}
	.st11{fill:#3EB44A;}
	.st12{fill:#2EA6DD;}
	.st13{opacity:0.8;fill:#FFFFFF;enable-background:new    ;}
	.st14{fill:#F5A4B6;stroke:#FFFFFF;stroke-width:0.5;stroke-miterlimit:10;}
	.st15{fill:#CB9EC8;stroke:#FFFFFF;stroke-width:0.5;stroke-miterlimit:10;}
    
    #mainRock{
        animation: mainRock 3s linear 1s infinite;
    }
        
     @keyframes mainRock{
         
        0%, 100%{transform: translate(0%, 0%);}
        10%{transform: translate(50%, -50%);}
        20%{transform: translate(50%, -50%);}
        22%{transform: translate(0%, 0%);}
     }
    
</style>
<title>Asset 21</title>
<text transform="matrix(-0.9757 0.219 0.219 0.9757 -331.7896 316.4401)" class="st0 st1 st2">J</text>
<path id="_Path_" class="st3" d="M-326.9,319.1c0,0,27.7,3.2,28.3-0.4c0.7-4-11.9-9.8-14.8-10.9l-8.2-3c-1.3-0.5-2.7,0.1-3.2,1.4
	l-3.6,9.8C-328.8,317.2-328.1,318.6-326.9,319.1z"/>
<path id="_Path_2" class="st3" d="M-363,327.5l-0.7,5.6c-0.2,1.5-0.1,3.1,0.2,4.6c1.2,5.7,4,9,5.6,9.4c1.1,0.3,3.4-1.4,5.5-4
	c2.3-2.9,3.7-6.5,4.1-10.2l0.4-3.6c0.4-3.4-1.5-6.4-4.2-6.8l-5.4-0.6C-360,321.5-362.6,324-363,327.5z"/>
<path class="st3" d="M-331.4,254.9c0,0,9.4-10.8,9.3-12.1l6.2-20c0,0,1.7-4.7-0.2-7.4c-1.8-2.7-7.9,3.6-7.9,3.6
	s-11.6,15.5-12.7,21.5c-0.6,2.5-1.6,4.8-2.9,7c0,0-1.1-2.4-21.7,1.4c0,0-9.6,1.9-14.3,7.9c0,0-8.8-7.1-13.4-8.1
	c-3.7-0.8-21.1-5.8-25.4-4.8c-7,1.7,10.3,15.9,14.3,18c4,2.1,13.8,7.8,18.4,7.8l-0.4,21.2c0,0-4.9,25.9,13.5,34c0,0,3.2,1.7,9.4,2
	c7.8,0.3,20.5-1.8,37.8-12.5c0,0,4.9-1.2,5.4-18.5c0.1-2.2,0-4.7-0.1-7.4l-4.9-13.5C-321,274.9-328.2,257.7-331.4,254.9z"/>
<path class="st4" d="M-331,275.2c0,0-4.5-0.8-5.9-4.7c0,0-0.5-10.1,7.6-6C-326.9,265.8-323.3,274.1-331,275.2z"/>
<circle class="st4" cx="-358.6" cy="276.6" r="7.3"/>
<path class="st5" d="M-332.8,253.4c0,0,0.5-16.4,3.7-19.3l8.1-12.2c0,0,1.7-4.8,3.1,0.8l-5.9,17.7
	C-323.7,240.4-328.1,249.7-332.8,253.4z"/>
<path class="st5" d="M-375.4,267.2c0,0-16.6,0.9-33.3-15.3c0,0-6.1-5.1,2.4-4.1c0,0,26.1,4.2,32.5,16.2L-375.4,267.2z"/>
<path class="st6" d="M-336.3,280.8c0,0-5.6,5-9.8,2.2c0,0-1.7-0.9-0.2-0.9C-346.4,282.1-339.2,282.1-336.3,280.8z"/>
<circle class="st7" cx="-355.4" cy="274.7" r="1.9"/>
<circle class="st7" cx="-330.5" cy="267.5" r="1.6"/>
<polygon id="queue" class="st8" points="-394.9,304.8 -392.6,305.3 -395.7,307.4 -393.5,307.2 -395.8,310.2 -393.7,309.4 -395,313 
	-393.2,311.6 -393.3,315.3 -392.1,313.5 -390.9,317.1 -390.4,315 -388.1,318 -388.3,315.9 -385.1,318 -386,316 -382.2,316.9 
	-383.8,315.4 -379.9,315.1 -381.9,314.1 -378.3,312.5 -380.5,312.3 -377.6,309.7 -379.8,310.2 -377.8,306.8 -379.7,308 
	-378.9,304.1 -380.4,305.9 -380.8,302 -381.6,304.1 -383.1,300.5 -383.4,302.9 -385.8,299.8 -385.3,302.1 -388.5,300 -387.4,302.1 
	-391.1,300.9 -389.4,302.6 -393.3,302.5 -391.2,303.7 "/>
<path class="st9" d="M-368.1,249.6c2.2,5.1,7.1,4.3,10.4,4c5.4-0.4,10.8-4.4,10.3-9.8c-0.3-3-1.3-7.2-8.7-11.4
	c-3.6-2,2.2,5.8-0.1,6.5C-363.1,241.1-370.3,244.7-368.1,249.6z"/>
<path class="st6" d="M-304.9,314l5,1.7c0,0,0.7,0.6,0.8,0.9c0.1,0.3-6-2.2-6-2.2L-304.9,314z"/>
<path class="st6" d="M-306.4,315.9l7.7,1.4c0.1,0.3,0.2,0.6,0.3,0.9c0,0.3-8.1-2.1-8.1-2.1L-306.4,315.9z"/>
<path class="st6" d="M-298.7,319l-6.1-0.9l-0.3,0.3l4.9,1.3c0.3-0.1,0.6-0.2,0.9-0.4C-298.7,319.2-298.7,319-298.7,319z"/>
<polygon class="st6" points="-353.4,338.5 -353.4,344.2 -354.7,345.4 -353.8,338.5 "/>
<polygon class="st6" points="-357,339.8 -356.7,346.7 -357.2,347 -358.1,347 -357.6,339.7 "/>
<polygon class="st6" points="-360,345.3 -359,339.1 -359.4,338.9 -360.7,344.4 "/>
<path class="st10" d="M-349.1,301.4c0,0-8.7,8.7-8.6,10.4c0,0-5.3,6.6,3.7,13.4c0,0,9.5,1.2,22.8-4.9c0,0,9-5.1,9.2-5.4
	c1.3-2.7,2.2-5.5,2.7-8.4c0,0-7.9-15.6-18.5-13.3l-5.5,1.2C-343.2,294.6-345.2,296.1-349.1,301.4z"/>
<path id="_Compound_Path_" class="st11" d="M-322,308c-0.4,0.2-2.7,1.7-3.1,1.9c-1.5,0.7-3.1,1.1-4.8,1.4c-0.7,0-1.3,0.6-1.4,1.3
	c-0.8,3.8-12.4,17.2-16.5,16.4c-7-1.3-6.9-9.6-11-13.9c-1.9-3-12.4-7.7-9.2-12.5c6.1-9,18.7-10.2,21.9-9.9c0.5,0,0.7,0,0.9-0.4
	c0.2-0.5,0.5-1,0.8-1.5c2.3-3.4,5.1-6.2,9.3-6.5c3.7-0.2,7.4,1.1,10.1,3.6c0.3,0.4,0.9,0.4,1.2,0.1c0,0,0.1,0,0.1-0.1
	c4-2.8,8-5.7,12.1-8.5c0.4-0.3,0.7-0.6,0.2-1c-0.5-0.4,5.9-10.1,9.1-12.3c0.6-0.4,1.5,4.4,2.1,5.4c1.1,1.8,2.4,3.5,3.9,5
	c1,0.9,6.2,2.1,5.6,2.6c-3.2,2.2-15.5,6.2-15.8,5.7c-0.3-0.5-0.6-0.5-1.1-0.2c-4.1,2.8-8.1,5.7-12.2,8.5c-0.4,0.3-0.5,0.6-0.3,1
	c0.6,1.2,1,2.4,1.2,3.7c0.6,3.9-0.9,8.5-4,10.7 M-323.6,308.5l2.9-9.9"/>
<path id="_Path_7" class="st9" d="M-337.2,294.9c-5.5-2.2-11.8,0.4-14.1,5.9c-2,5.5,0.8,11.6,6.2,13.6c0.1,0,0.1,0,0.2,0.1
	c5.5,2.2,11.8-0.4,14.1-5.9c2-5.5-0.8-11.6-6.2-13.6C-337.1,294.9-337.2,294.9-337.2,294.9z"/>
<circle class="st6" cx="-358.9" cy="276.9" r="9.1"/>
<path class="st6" d="M-330.5,277.4c0,0-6.6,0.2-7.8-5.1c-0.7-3.3-0.6-14.3,10-8.9C-325.4,264.9-320.5,275.9-330.5,277.4z"/>
<path class="st12" d="M-330.9,275.5c0,0-4.5-0.8-6-4.7c0,0-0.5-10.2,7.7-6.1C-326.8,266-323.1,274.4-330.9,275.5z"/>
<circle class="st12" cx="-358.9" cy="276.9" r="7.4"/>
<circle class="st7" cx="-355.7" cy="274.9" r="1.9"/>
<circle class="st13" cx="-330.5" cy="267.6" r="1.6"/>
<g id="mainJoue">
	<path id="_Rectangle_2" class="st14" d="M-355.8,291.7L-355.8,291.7c1.4,0.6,2.1,2.2,1.6,3.6l-3.8,9.7c-0.6,1.4-2.2,2.1-3.6,1.6
		l-0.8-0.3c-3.4-1.3-5-5.2-3.7-8.6l0.7-1.9C-364,292-359.6,290.1-355.8,291.7C-355.8,291.7-355.8,291.7-355.8,291.7L-355.8,291.7z"
		/>
	<path id="_Path_8" class="st15" d="M-360.1,308.1l1.1,0.6c1.3,0.7,2.8,0.6,3.3-0.4l0,0c0.5-0.9,0-2.2-1.3-3l-1.1-0.6
		c-1.3-0.7-2.8-0.6-3.3,0.4l0,0C-362,306-361.4,307.3-360.1,308.1z"/>
	<path id="_Path_9" class="st15" d="M-358.3,303.9l1,0.6c1.2,0.7,2.6,0.5,3.2-0.3l0,0c0.5-0.9,0-2.2-1.3-2.8l-1-0.6
		c-1.2-0.7-2.6-0.5-3.2,0.3l0,0C-360.1,301.9-359.5,303.2-358.3,303.9z"/>
	<path id="_Path_10" class="st15" d="M-356.3,300l1,0.6c1.2,0.7,2.6,0.5,3.2-0.3l0,0c0.5-0.9,0-2.2-1.3-2.8l-1-0.6
		c-1.2-0.7-2.6-0.5-3.2,0.3l0,0C-358.1,298.1-357.5,299.3-356.3,300z"/>
	<path id="_Path_11" class="st15" d="M-354.6,296.5l1,0.6c1.2,0.7,2.6,0.5,3.2-0.3l0,0c0.5-0.9,0-2.2-1.3-2.8l-1-0.6
		c-1.2-0.7-2.6-0.5-3.2,0.3l0,0C-356.3,294.5-355.8,295.8-354.6,296.5z"/>
</g>
<g id="mainRock">
	<path id="_Rectangle_" class="st14" d="M-321.4,251.3L-321.4,251.3c1.4-1.2,3.4-1.1,4.7,0.3c0,0,0,0,0,0l8,8.9
		c1.2,1.4,1.1,3.4-0.3,4.7l0,0l-0.7,0.7c-3.2,2.9-8.1,2.6-10.9-0.6l-1.4-1.5C-325.3,260.1-325,254.6-321.4,251.3z"/>
	<path id="_Path_3" class="st15" d="M-309.3,255.8l-0.3-0.4c-0.8-1-2.2-1.2-3.2-0.4c0,0,0,0-0.1,0l0,0c-1,0.8-1.2,2.3-0.4,3.4
		l0.3,0.4c0.8,1,2.2,1.2,3.2,0.4c0,0,0,0,0.1,0l0,0C-308.7,258.3-308.5,256.8-309.3,255.8z"/>
	<path id="_Path_4" class="st15" d="M-316.1,251.5L-316.1,251.5c-0.9,0.9-1,2.3-0.2,3.3l0.1,0.1c0.8,0.9,2.2,1,3.2,0.2
		c0,0,0,0,0.1,0l0,0c0.9-0.9,1-2.4,0.2-3.3l-0.1-0.1C-313.6,250.7-315.1,250.6-316.1,251.5C-316,251.4-316.1,251.5-316.1,251.5z"/>
	<path id="_Path_5" class="st15" d="M-317.1,245.6l-1.1,1c-1.3,1.2-1.7,3-0.9,4l0,0c0.9,1,2.6,0.8,4-0.4l1.1-1c1.3-1.2,1.7-3,0.9-4
		l0,0C-314,244.2-315.7,244.4-317.1,245.6z"/>
	<path id="_Path_6" class="st15" d="M-307,256.9l-1,1c-1.2,1.1-1.5,2.8-0.6,3.8l0,0c0.8,1,2.5,0.9,3.8-0.2l1-1
		c1.2-1.1,1.5-2.8,0.7-3.8l0,0C-304.1,255.7-305.8,255.8-307,256.9z"/>
</g>
</svg>
