<?xml version="1.0" encoding="utf-8"?>
<!-- Generator: Adobe Illustrator 19.1.0, SVG Export Plug-In . SVG Version: 6.00 Build 0)  -->
<svg version="1.1" id="Calque_1" xmlns="http://www.w3.org/2000/svg" xmlns:xlink="http://www.w3.org/1999/xlink" x="0px" y="0px"
	 viewBox="-451 247.3 56.8 67.7" style="enable-background:new -451 247.3 56.8 67.7;" xml:space="preserve">
<style type="text/css">
	.st0{fill:#F59221;}
	.st1{fill:#9854A0;}
	.st2{fill:#FFFFFF;}
	.st3{fill:#53C7E9;}
	.st4{fill:#2EA6DD;}
	.st5{fill:#F59222;}
	.st6{fill:#3EB44A;}
	.st7{fill:#9954A0;}
	.st8{fill:#CB9EC8;stroke:#FFFFFF;stroke-width:0.25;stroke-miterlimit:10;}
    
    #paupiere{
        animation: paupiere 5s linear 3s infinite;
    }
        
     @keyframes paupiere {
         
        0%{transform: translateY(0%);}
        2%{transform: translateY(100%);}
        4%{transform: translateY(100%)}
        5%{transform: translateY(0%)}
        100%{transform: translateY(0%)}
        }
    
</style>
<title>Asset 19</title>
<g id="Layer_2">
	<g id="Layer_1-2">
		<path class="st0" d="M-415,269.1c0-0.2,0-0.5,0-0.5V269.1z"/>
		<path class="st0" d="M-415.5,270.1c0-0.2,0-0.4,0-0.5V270.1z"/>
		<path class="st1" d="M-441.6,282.8c0,0-1.6-3.7,0-4.8c0,0,0.6,2.2,1.3,2.3c6.5,1.7,13.2,2.7,20,2.8c9.7,0,8.7,0,11.2-0.8
			c2.4-0.9,4.6-2.4,6.4-4.3c0,0,1.1,0.7,0,4.4l-11,9.9h-23.1L-441.6,282.8z"/>
		<path class="st1" d="M-440.3,279.7c0,0-0.6-4.8,4.1-10.7c0,0-0.6-8.2,4.1-12.8c0,0-3.3-2.8,0.8-8.7c0,0,2.4-1.2,1.9,1.9
			s2.7,5.1,2.7,5.1s8.4-1.4,12.7,0.3c0,0,4.5-3.4,2.1-4.9c0,0,0-3.4,3.4,0.2c0,0,2.8,2.3,0,7.9c2.2,3.7,3.2,8,2.7,12.3
			c0,0,2.7,7.2,2.2,8.3c-0.5,1.1-7.2,4.3-12.7,4.2c-4.6,0.2-9.2-0.1-13.8-0.8C-433.5,281.3-436.9,280.6-440.3,279.7z"/>
		<path class="st2" d="M-430,268.1h18c0,0,1.1,8.8-8.8,9C-420.8,277.1-429.7,278.1-430,268.1z"/>
		<path class="st3" d="M-425.3,268.1h9c0,0,0.5,4.4-4.4,4.5C-420.7,272.6-425.1,273.1-425.3,268.1z"/>
		<path d="M-423.1,268.1h4.3c0.1,1-0.6,2-1.6,2.2c-0.2,0-0.3,0-0.5,0c-1.1,0.1-2.1-0.7-2.2-1.8
			C-423.1,268.4-423.1,268.2-423.1,268.1z"/>
		<path class="st2" d="M-434.2,281.1c0,0-0.1-1.7,2.1-4.2c0,0,0,4.6,1.9,4.9L-434.2,281.1z"/>
		<path class="st2" d="M-407.4,280.8c0,0-0.2-1.8-2.9-3.9c0,0,0.8,4.5-1,5.1c0.8-0.1,1.6-0.3,2.4-0.6
			C-408,281.1-407.4,280.8-407.4,280.8z"/>
		<polygon class="st4" points="-444.7,306.9 -428.2,313.7 -426.4,289.9 -444.7,281.4 		"/>
		<path class="st5" d="M-428.2,313.7c2.9,1.8,6.5,1.8,9.5,0l1.6-23.8c0,0-6.6-1.2-9.2,0L-428.2,313.7z"/>
		<path class="st6" d="M-416.3,289.6l16.9-8.9l-2.4,25.3c0,0-13.8,7.3-17.1,7.7l1.6-23.8L-416.3,289.6z"/>
		<path id="_Rectangle_" class="st7" d="M-448.9,290.1h5.2c0.5,0,0.9,0.4,0.9,0.9l0,0v7.9c0,0.5-0.4,0.9-0.9,0.9c0,0,0,0,0,0h-5
			c-1.3,0-2.4-1.1-2.4-2.4v-5.2C-451,291-450.1,290.1-448.9,290.1C-448.9,290.1-448.9,290.1-448.9,290.1L-448.9,290.1z"/>
		<path id="_Path_" class="st8" d="M-441.6,292v0.3c0,0.8-0.5,1.4-1.3,1.5l0,0c-0.8,0.1-1.4-0.5-1.5-1.3v-0.3c0-0.8,0.5-1.4,1.3-1.5
			l0,0C-442.4,290.6-441.7,291.2-441.6,292z"/>
		<path id="_Rectangle_2" class="st8" d="M-443.9,293.9h1.5c0.4,0,0.6,0.3,0.6,0.6v1.5c0,0.4-0.3,0.6-0.6,0.6h-1.5
			c-0.4,0-0.6-0.3-0.6-0.6v-1.5C-444.6,294.2-444.3,293.9-443.9,293.9z"/>
		<path id="_Rectangle_3" class="st8" d="M-443.9,297h2.2c0.4,0,0.6,0.3,0.6,0.6v1.5c0,0.4-0.3,0.6-0.6,0.6h-2.2
			c-0.4,0-0.6-0.3-0.6-0.6v-1.5C-444.6,297.3-444.3,297-443.9,297z"/>
		<path id="_Rectangle_4" class="st7" d="M-396.5,299.8l-4.3-0.1c-0.5,0-0.9-0.4-0.9-0.9l0,0l0.1-7.9c0-0.5,0.4-0.9,0.9-0.9l0,0
			l4,0.1c1.3,0,2.4,1.1,2.4,2.4l0,0l-0.1,5.2C-394.3,298.9-395.3,299.8-396.5,299.8C-396.5,299.8-396.5,299.8-396.5,299.8z"/>
		<path id="_Rectangle_5" class="st8" d="M-400.8,299.4l-1.8,0c-0.4,0-0.6-0.3-0.6-0.6l0-1.5c0-0.4,0.3-0.6,0.6-0.6l1.8,0
			c0.4,0,0.6,0.3,0.6,0.6l0,1.5C-400.2,299.1-400.5,299.4-400.8,299.4z"/>
		<path id="_Rectangle_6" class="st8" d="M-400.8,296.3l-1.5,0c-0.4,0-0.6-0.3-0.6-0.6l0-1.5c0-0.4,0.3-0.6,0.6-0.6l1.5,0
			c0.4,0,0.6,0.3,0.6,0.6l0,1.5C-400.1,296-400.4,296.3-400.8,296.3z"/>
		<path id="_Rectangle_7" class="st8" d="M-400.7,293.2l-2.2,0c-0.4,0-0.6-0.3-0.6-0.6l0-1.5c0-0.4,0.3-0.6,0.6-0.6l2.2,0
			c0.4,0,0.6,0.3,0.6,0.6l0,1.5C-400.1,292.9-400.4,293.2-400.7,293.2z"/>
	</g>
</g>
<rect id="paupiere" x="-431.5" y="255.6" class="st1" width="21" height="11.4"/>
</svg>
