
<svg version="1.1" id="Layer_1" xmlns="http://www.w3.org/2000/svg" xmlns:xlink="http://www.w3.org/1999/xlink" x="0px" y="0px"
	 viewBox="0 0 213 237.9" style="enable-background:new 0 0 213 237.9;" xml:space="preserve">
<style type="text/css">
	.st0{fill:#F59221;}
	.st1{fill:#E7168A;}
	.st2{fill:#F59222;}
	.st3{fill:#98549F;}
	.st4{fill:#FFFFFF;}
	.st5{fill:#54C6E8;}
	.st6{fill:#99549F;}
	.st7{fill:#2EA6DD;}
	.st8{fill:#3EB44A;}
	.st9{fill:#CB9DC8;stroke:#FFFFFF;stroke-width:1.5;stroke-miterlimit:10;}
    
    #paupiere{
        animation: paupiere 5s linear 3s infinite;
    }
        
     @keyframes paupiere {
         
         0%{transform: translateY(0%);}
        2%{transform: translateY(100%);}
        4%{transform: translateY(100%)}
        5%{transform: translateY(0%)}
        100%{transform: translateY(0%)}
        }
</style>
<path class="st0" d="M148.5,254.5c0-0.3,0-0.5,0-0.6L148.5,254.5z"/>
<g>
	<g>
		<path class="st1" d="M172.6,17.7c-0.9-1.8-3.7-2.3-6.1-1c-2.4,1.2-3.5,3.7-2.6,5.5c0.7,1.4,2.6,1.9,4.3,1.7l2.5,5l3.4-1.7l-2.5-5
			C172.7,20.9,173.3,19.1,172.6,17.7z"/>
		<path class="st1" d="M161.9,23.2c-0.9-1.8-3.7-2.3-6.1-1.1c-2.4,1.2-3.6,3.7-2.6,5.5c0.7,1.4,2.6,1.9,4.3,1.7l2.5,5l3.4-1.7
			l-2.5-5C162.1,26.3,162.6,24.6,161.9,23.2z"/>
		<path class="st1" d="M151.7,28.4c-0.9-1.8-3.7-2.3-6.1-1.1c-2.4,1.2-3.6,3.7-2.6,5.5c0.7,1.4,2.6,1.9,4.3,1.7l2.5,5l3.4-1.7
			l-2.5-5C151.9,31.6,152.4,29.8,151.7,28.4z"/>
		<path class="st1" d="M182.9,12.4c-0.9-1.8-3.7-2.3-6.1-1.1c-2.4,1.2-3.6,3.7-2.7,5.6c0.7,1.4,2.5,1.9,4.2,1.7l2.5,5l3.4-1.7
			l-2.5-5C182.9,15.6,183.6,13.8,182.9,12.4z"/>
		<path class="st1" d="M193.4,7c-0.9-1.8-3.7-2.3-6.1-1c-2.4,1.2-3.5,3.7-2.6,5.5c0.7,1.4,2.6,1.9,4.3,1.6l2.5,5l3.4-1.7l-2.5-5
			C193.6,10.1,194.1,8.4,193.4,7z"/>
		<path class="st1" d="M203.7,1.7c-0.9-1.8-3.7-2.3-6.1-1.1c-2.4,1.2-3.6,3.7-2.6,5.5c0.7,1.4,2.6,1.9,4.3,1.7l2.5,5l3.4-1.7l-2.5-5
			C203.8,4.9,204.4,3.1,203.7,1.7z"/>
	</g>
	<polygon class="st2" points="133.6,57.5 133.6,57.5 134.3,56.8 	"/>
	<polygon class="st2" points="146.8,69.3 146.1,70 146.1,70 	"/>
	<path class="st2" d="M111.9,144.7c10.4-11.2,41-14.5,35.8-31.5c-2.4-11.3-13.4,4-25.1,2.4c-0.1,0-0.3-0.1-0.4-0.1
		c-8.3-4.8-8.7-10.7-8.6-12.3c0-0.3,0.1-0.5,0.3-0.7l31.9-32.2l14.7-15c0.1-0.1,0.1-0.1,0.2-0.2c1.1-0.6,8.7-4.5,14.6-0.2
		c0.4,0.3,0.9,0.2,1.3-0.1c9.2-8.6,20.1-27.1,20.1-27.1c2.7,6.8,21.2,4,15-10.2c0,0,0-0.1-0.1-0.1l0,0l-3.8-8.8l-55.7,28.9
		c-1.7,0.7-3.5,1.5-5.1,2.2c-0.3,0.1-0.5,0.4-0.6,0.7l-1.9,6.6c0,0.2,0,0.2-0.1,0.3l-11.1,10.5l-25.6,25c-0.4,0.4-1.2,0.4-1.6-0.1
		c-1.7-2.4-6-9.2-6.4-16.5c-0.4-9.1,6.4-13.6,11.1-18.7c3.9-4.2-5.4-19.8-26.4,3.9C64.6,73.7,69.2,78.9,62.7,86.7
		c-6.5,7.8-34.8,6.7-56.1,31.4c-21,24.3,15,57.3,16.3,58.5c0,0,0,0,0.1,0.1c1.2,1.3,34.1,37.7,57.1,20.7
		C103.5,180.1,101.4,155.9,111.9,144.7z"/>
</g>
<path class="st3" d="M38.9,90.7c0,0-3.9-9.5,0-12.3c0,0,1.4,5.5,3.3,6c8.7,2,27.2,7.1,50.1,7.1c24.1,0,21.8,0.1,27.9-2.1
	s13.7-7.8,16-10.9c0,0,2.8,1.8,0,11.3l-27.6,25.4H51L38.9,90.7z"/>
<path class="st3" d="M42.3,82.7c0,0-1.6-12.2,10.3-27.2c0,0-1.6-20.9,10.3-32.8c0,0-8.3-7.1,2-22.1c0,0,5.9-3.2,4.7,4.7
	s6.7,13,6.7,13s20.9-3.6,31.6,0.8c0,0,11.2-8.7,5.2-12.6c0,0-0.1-8.7,8.6,0.4c0,0,7.1,5.9,0,20.1c0,0,8.7,12.7,6.7,31.4
	c0,0,6.7,18.3,5.5,21.1c-1.2,2.8-17.9,11.1-31.6,10.7c-5.2-0.2-19,0.8-34.3-2C67.9,88.2,60,87.5,42.3,82.7z"/>
<path class="st4" d="M67.9,53.1h45c0,0,2.7,22.5-22,22.9C91,76,68.7,78.8,67.9,53.1z"/>
<path class="st5" d="M79.7,53.1h22.5c0,0,1.3,11.2-11,11.4C91.2,64.6,80.1,66,79.7,53.1z"/>
<path d="M85.1,53.1h10.8c0,0,0.6,5.4-5.3,5.5C90.6,58.6,85.3,59.3,85.1,53.1z"/>
<path class="st4" d="M57.5,86.5c0,0-0.3-4.4,5.2-10.8c0,0,0.1,11.8,4.7,12.5L57.5,86.5z"/>
<path class="st4" d="M124.2,85.7c0,0-0.6-4.6-7.2-9.9c0,0,2.1,11.4-2.4,12.9c0,0,3.8-0.5,6-1.4C122.8,86.3,124.2,85.7,124.2,85.7z"
	/>
<path class="st6" d="M26.1,171.5c0,0-15.3,4.7-17.9,46.4c0,0,26.9,16.1,51.8,15.7c0,0,3.3,0.4,4.6-3.6l4.6-12.4c0,0,23-1.1,29.6,1.5
	l4.8,17.1c0,0-2.7,1.1,2.8,1.8c0,0,28.1,0.4,47.8-14.6c0,0-1.1-6.3-0.5-14.5c0.8-11.8,1.8-27.9-13.7-37.4c0,0,6.3-22.1-4.5-26
	l-100.2,3.7C35.2,149.2,30.5,149.2,26.1,171.5z"/>
<polygon class="st7" points="31.2,152.2 72.3,169.6 77,108.8 31.2,87.1 "/>
<path class="st2" d="M72.3,169.6c0,0,10.5,7.5,23.6,0l4-60.8c0,0-16.6-3.2-22.9,0L72.3,169.6z"/>
<path class="st8" d="M102.2,108l42.3-22.7l-5.9,64.6c0,0-34.5,18.6-42.7,19.7l4-60.8L102.2,108z"/>
<path id="XMLID_2360_" class="st6" d="M31.3,134.2h-2.9c-7.1,0-12.9-5.8-12.9-12.9v-0.7c0-6.2,5.1-11.3,11.3-11.3h4.5
	c2.7,0,4.8,2.2,4.8,4.8v15.2C36.1,132,33.9,134.2,31.3,134.2z"/>
<g>
	<path id="XMLID_2359_" class="st9" d="M38.8,114l0.1,0.9c0.1,1.9-1.3,3.5-3.2,3.6l-0.2,0c-1.9,0.1-3.5-1.3-3.6-3.2l-0.1-0.9
		c-0.1-1.9,1.3-3.5,3.2-3.6l0.2,0C37,110.7,38.7,112.2,38.8,114z"/>
	<path id="XMLID_2358_" class="st9" d="M35.1,126.1h-0.2c-1.8,0-3.3-1.5-3.3-3.3v-0.3c0-1.8,1.5-3.3,3.3-3.3h0.2
		c1.8,0,3.3,1.5,3.3,3.3v0.3C38.4,124.6,36.9,126.1,35.1,126.1z"/>
	<path id="XMLID_2357_" class="st9" d="M36.8,134h-1.8c-1.9,0-3.4-1.5-3.4-3.4v-0.2c0-1.9,1.5-3.4,3.4-3.4h1.8
		c1.9,0,3.4,1.5,3.4,3.4v0.2C40.2,132.5,38.7,134,36.8,134z"/>
</g>
<path id="XMLID_2356_" class="st6" d="M144,109.2l0.5,0c7.1,0.1,12.8,6,12.7,13.1l0,0.7c-0.1,6.2-5.3,11.3-11.5,11.2l-2,0
	c-2.7,0-4.8-2.2-4.8-4.9L139,114C139.1,111.3,141.3,109.2,144,109.2z"/>
<path id="XMLID_2355_" class="st9" d="M138.2,126l0.9,0c1.9,0,3.4,1.6,3.4,3.5l0,0.2c0,1.9-1.6,3.4-3.5,3.4l-0.9,0
	c-1.9,0-3.4-1.6-3.4-3.5l0-0.2C134.8,127.5,136.3,126,138.2,126z"/>
<path id="XMLID_2354_" class="st9" d="M139.1,118.2l0.2,0c1.8,0,3.3,1.6,3.3,3.4l0,0.3c0,1.8-1.6,3.3-3.4,3.3l-0.2,0
	c-1.8,0-3.3-1.6-3.3-3.4l0-0.3C135.7,119.6,137.2,118.1,139.1,118.2z"/>
<path id="XMLID_2353_" class="st9" d="M137.4,110.2l1.8,0c1.9,0,3.4,1.6,3.4,3.5l0,0.2c0,1.9-1.6,3.4-3.5,3.4l-1.8,0
	c-1.9,0-3.4-1.6-3.4-3.5l0-0.2C134,111.7,135.6,110.2,137.4,110.2z"/>
<rect id="paupiere" x="66.8" y="28.8" class="st3" width="47.3" height="24.1"/>
</svg>
