
<svg version="1.1" id="Calque_1" xmlns="http://www.w3.org/2000/svg" xmlns:xlink="http://www.w3.org/1999/xlink" x="0px" y="0px"
	 viewBox="-437 242.1 104 99.3" style="enable-background:new -437 242.1 104 99.3;" xml:space="preserve">
<style type="text/css">
	.st0{fill:#F5A4B6;}
	.st1{fill:#FFFFFF;}
	.st2{fill:#2EA6DD;}
	.st3{fill:#736D9F;}
	.st4{opacity:0.76;fill:#FFFFFF;enable-background:new    ;}
	.st5{opacity:0.8;fill:#FFFFFF;enable-background:new    ;}
	.st6{fill:#F59222;}
	.st7{fill:#2EA6DD;fill-opacity:0;}
	.st8{fill:#F59222;stroke:#F59222;stroke-width:0.5;}
	.st9{font-family:'OratorStd';}
	.st10{font-size:17.0812px;}
    
    
     @keyframes boucheSiffle{
    0%, 100%{transform: translate(-100%, 0); fill:#F5A4B6;}
    10%{transform: translate(-150%, -54%); fill:#FFFFFF; }
    30%{transform: translate(-150%, -54%); fill:#FFFFFF;}
    31%{transform: translate(-100%, 0); fill:#F5A4B6; }
    }
    
    @keyframes jouesRoses{
    0%, 100%{fill:#F5A4B6;}
    5%{fill:#ef2c57;}
    30%{fill:#ef2c57;}
    31%{fill:#F5A4B6;}
    }
    
    @keyframes note1{
    0%, 100%{opacity:0;}
    5%{opacity:1;}
    20%{opacity:1;}
    21%{opacity:0;}
    }
    
    @keyframes note2{
    0%, 100%{opacity:0;}
    10%{opacity:1;}
    30%{opacity:1;}
    35%{opacity:0;}
    }
    
    @keyframes jouesGrosses{
    0%, 100%{transform: scale(1);}
    5%{transform: scale(1.1, 1.1);}
    30%{transform: scale(1.1, 1.1);}
    31%{transform: scale(1);}
    }
    
    @keyframes disapear {
    0%, 100%{fill:#FFFFFF;}
    1%{fill:#F5A4B6;}
    31%{fill:#F5A4B6;}
    32%{fill:#FFFFFF;}
    }
    
    #bouche{
    transform: translateX(-100%);
    animation: boucheSiffle 10s linear 5s infinite;
    }
    
    #joues ellipse{
    animation: jouesRoses 10s linear 5s infinite;
    
    }
    
    #joues{
    animation: jouesGrosses 10s linear 5s infinite;
    transform-origin: center center;
    }
    
    #sourire{
    animation: disapear 10s linear 5s infinite;
    }
    
    #note1{
    opacity:0;
    animation: note1 10s linear 5s infinite;
    }
    
    #note2{
    opacity:0;
    animation: note2 10s linear 5s infinite;
    }

    
    
</style>
<title>Asset 13</title>
<path class="st0" d="M-397.7,281.4c0,0-8.2-10.6-9.9-14.9c-1.8-4.5-2.9-9.3-3.3-14.2c-0.3-4.2,0.1-6.1,1.7-7.7
	c4.2-4,6.7,6.1,8.1,11.9c1.2,4,2.7,7.9,4.4,11.7c0.3,0.6,1.2,1.1,1.6,1.4c1.5,1.2,2.7,2.2,4.4,1.4c1.9-1,6.9-2.5,20.7-3.8
	c0,0,10-0.8,16.3,3.8l8.7-12.5c0.6-0.9,1-2,1-3.1c0.1-4.1,0.6-13.2,4.3-13.3c7.4-0.3,7.8,15.2,5.3,22.3c-2,5.5-8.4,14.4-11,20.2
	c0,0,0.1,16.6-5.5,24.7c-5.6,8.1-13.4,10.6-25.1,10.7c-11.7,0.1-24.2-6.4-26.3-16.1S-400.1,285-397.7,281.4z"/>
<circle class="st1" cx="-364.9" cy="295.2" r="9.1"/>
<path class="st1" d="M-392.3,303.4c0,0,6.5-1.6,6.2-7.1c-0.2-3.4-3.3-14.1-12.1-5.9C-400.7,292.7-402.5,304.7-392.3,303.4z"/>
<path class="st2" d="M-392.5,301.5c0,0,4.2-2,4.5-6.2c0,0-2.4-10-9.1-3.8C-399.1,293.4-400.3,302.5-392.5,301.5z"/>
<circle class="st2" cx="-364.9" cy="295.2" r="7.5"/>
<path class="st3" d="M-399.2,274.8c0.9,1.1,2.6,0.2,2.5-1.3c-0.3-4.4-4-6.7-5.7-12.2l-2.1-7c-1.4-3.3-4.3-7.1-4.6-2.6
	c-0.3,4.2,1.6,10.9,3.5,14C-403.7,268.9-401.5,271.9-399.2,274.8z"/>
<path class="st3" d="M-345,276.2c4.3-4.9,13.2-27.7,6.2-28.4c-3.3-0.3-0.6,7.1-3.6,12.7c-2.6,4.8-7.2,7-7.3,12.8c0,0.3,0,0.7,0,1
	c0.1,1.5,1.5,2.7,3.1,2.5c0.5,0,1-0.2,1.4-0.5L-345,276.2z"/>
<circle class="st4" cx="-368.6" cy="294.2" r="1.9"/>
<circle class="st5" cx="-395" cy="294" r="1.6"/>
<path class="st6" d="M-363,266c-0.8,5.7-5.8,6.2-9.1,6.8c-5.4,1.1-11.9-1.3-12.9-6.8c-0.5-3.1-0.7-7.5,5.4-13.6c3-3-0.5,6.3,1.9,6.4
	C-370.3,258.9-362.2,260.5-363,266z"/>
<circle id="bouche" class="st0" cx="-377.8" cy="310.6" r="2.3"/>
<g id="joues">
	
		<ellipse transform="matrix(-0.4682 -0.8836 0.8836 -0.4682 -817.5034 129.186)" class="st0" cx="-369.9" cy="310.6" rx="5.2" ry="5.7"/>
	
		<ellipse transform="matrix(-0.6024 -0.7982 0.7982 -0.6024 -875.5548 181.8351)" class="st0" cx="-392.5" cy="309" rx="4.7" ry="4.1"/>
</g>
<path id="sourire" class="st1" d="M-383.8,306.1c0,0,6.9,3.4,10.3-0.6c0,0,1.4-1.4-0.1-0.9C-373.5,304.6-380.6,306.6-383.8,306.1z"
	/>
<g>
	<path id="note1" class="st2" d="M-407.4,283l-3.2-0.6l-2.6,14.5c-0.3-0.1-0.6-0.2-0.9-0.2c-2.2-0.4-4.3,0.6-4.6,2.3
		c-0.3,1.7,1.3,3.4,3.5,3.8c2.2,0.4,4.3-0.6,4.6-2.3c0-0.1,0-0.3,0-0.4c0.1-0.1,0.1-0.2,0.1-0.4L-407.4,283z"/>
	<path id="note2" class="st2" d="M-419.1,289.1c-2.1,0.8-4.3,0.1-4.9-1.5c-0.6-1.6,0.7-3.5,2.8-4.3c0.3-0.1,0.6-0.2,0.9-0.2
		l-4.2-11.5l-6.2,2.3l5,13.5c0,0.1,0.1,0.2,0.1,0.3l0,0c0.1,0.1,0.2,0.3,0.2,0.4c0.6,1.6-0.7,3.5-2.8,4.3c-2.1,0.8-4.3,0.1-4.9-1.5
		c-0.6-1.6,0.7-3.6,2.8-4.3c0.3-0.1,0.6-0.2,0.9-0.2l-4.2-11.5l-0.9-2.4l3-1.1l6.2-2.3l3-1.1l0.8,2.3v0.1l5,13.5
		c0,0.1,0.1,0.2,0.1,0.4c0.1,0.1,0.2,0.3,0.2,0.4C-415.7,286.4-417,288.4-419.1,289.1z"/>
	<polygon class="st2" points="-421.6,270.4 -422.4,268.1 -422.4,268.1 	"/>
</g>
<text transform="matrix(0.9758 0 0 1 -401.0004 338.3178)" class="st8 st9 st10">JOUER</text>
</svg>
