
<svg version="1.1" id="Calque_1" xmlns="http://www.w3.org/2000/svg" xmlns:xlink="http://www.w3.org/1999/xlink" x="0px" y="0px"
	 viewBox="-451 246.6 56.8 86" style="enable-background:new -451 246.6 56.8 86;" xml:space="preserve">
<style type="text/css">
	.st0{fill:#F59221;}
	.st1{fill:#9854A0;}
	.st2{fill:#FFFFFF;}
	.st3{fill:#53C7E9;}
	.st4{fill:#2EA6DD;}
	.st5{fill:#F59222;}
	.st6{fill:#3EB44A;}
	.st7{fill:#9954A0;}
	.st8{fill:#CB9EC8;stroke:#FFFFFF;stroke-width:0.25;stroke-miterlimit:10;}
	.st9{fill:#F59222;stroke:#F59222;stroke-width:0.5;}
	.st10{font-family:'OratorStd';}
	.st11{font-size:17.0812px;}
    
    
     #paupiere{
        animation: paupiere 5s linear 3s infinite;
    }
        
     @keyframes paupiere {
         
        0%{transform: translateY(0%);}
        2%{transform: translateY(100%);}
        4%{transform: translateY(100%)}
        5%{transform: translateY(0%)}
        100%{transform: translateY(0%)}
        }
    
</style>
<title>Asset 19</title>
<g id="Layer_2">
	<g id="Layer_1-2">
		<path class="st0" d="M-414.9,270.1c0-0.2,0-0.5,0-0.5V270.1z"/>
		<path class="st0" d="M-415.4,271.1c0-0.2,0-0.4,0-0.5V271.1z"/>
		<path class="st1" d="M-441.5,283.8c0,0-1.6-3.7,0-4.8c0,0,0.6,2.2,1.3,2.3c6.5,1.7,13.2,2.7,20,2.8c9.7,0,8.7,0,11.2-0.8
			c2.4-0.9,4.6-2.4,6.4-4.3c0,0,1.1,0.7,0,4.4l-11,9.9h-23.1L-441.5,283.8z"/>
		<path class="st1" d="M-440.2,280.7c0,0-0.6-4.8,4.1-10.7c0,0-0.6-8.2,4.1-12.8c0,0-3.3-2.8,0.8-8.7c0,0,2.4-1.2,1.9,1.9
			s2.7,5.1,2.7,5.1s8.4-1.4,12.7,0.3c0,0,4.5-3.4,2.1-4.9c0,0,0-3.4,3.4,0.2c0,0,2.8,2.3,0,7.9c2.2,3.7,3.2,8,2.7,12.3
			c0,0,2.7,7.2,2.2,8.3c-0.5,1.1-7.2,4.3-12.7,4.2c-4.6,0.2-9.2-0.1-13.8-0.8C-433.4,282.3-436.8,281.6-440.2,280.7z"/>
		<path class="st2" d="M-429.9,269.1h18c0,0,1.1,8.8-8.8,9C-420.7,278.1-429.6,279.1-429.9,269.1z"/>
		<path class="st3" d="M-425.2,269.1h9c0,0,0.5,4.4-4.4,4.5C-420.6,273.6-425,274.1-425.2,269.1z"/>
		<path d="M-423,269.1h4.3c0.1,1-0.6,2-1.6,2.2c-0.2,0-0.3,0-0.5,0c-1.1,0.1-2.1-0.7-2.2-1.8C-423,269.4-423,269.2-423,269.1z"/>
		<path class="st2" d="M-434.1,282.1c0,0-0.1-1.7,2.1-4.2c0,0,0,4.6,1.9,4.9L-434.1,282.1z"/>
		<path class="st2" d="M-407.3,281.8c0,0-0.2-1.8-2.9-3.9c0,0,0.8,4.5-1,5.1c0.8-0.1,1.6-0.3,2.4-0.6
			C-407.9,282.1-407.3,281.8-407.3,281.8z"/>
		<polygon class="st4" points="-444.6,307.9 -428.1,314.7 -426.3,290.9 -444.6,282.4 		"/>
		<path class="st5" d="M-428.1,314.7c2.9,1.8,6.5,1.8,9.5,0l1.6-23.8c0,0-6.6-1.2-9.2,0L-428.1,314.7z"/>
		<path class="st6" d="M-416.2,290.6l16.9-8.9l-2.4,25.3c0,0-13.8,7.3-17.1,7.7l1.6-23.8L-416.2,290.6z"/>
		<path id="_Rectangle_" class="st7" d="M-448.8,291.1h5.2c0.5,0,0.9,0.4,0.9,0.9l0,0v7.9c0,0.5-0.4,0.9-0.9,0.9l0,0h-5
			c-1.3,0-2.4-1.1-2.4-2.4v-5.2C-450.9,292-450,291.1-448.8,291.1L-448.8,291.1L-448.8,291.1z"/>
		<path id="_Path_" class="st8" d="M-441.5,293v0.3c0,0.8-0.5,1.4-1.3,1.5l0,0c-0.8,0.1-1.4-0.5-1.5-1.3v-0.3c0-0.8,0.5-1.4,1.3-1.5
			l0,0C-442.3,291.6-441.6,292.2-441.5,293z"/>
		<path id="_Rectangle_2" class="st8" d="M-443.8,294.9h1.5c0.4,0,0.6,0.3,0.6,0.6v1.5c0,0.4-0.3,0.6-0.6,0.6h-1.5
			c-0.4,0-0.6-0.3-0.6-0.6v-1.5C-444.5,295.2-444.2,294.9-443.8,294.9z"/>
		<path id="_Rectangle_3" class="st8" d="M-443.8,298h2.2c0.4,0,0.6,0.3,0.6,0.6v1.5c0,0.4-0.3,0.6-0.6,0.6h-2.2
			c-0.4,0-0.6-0.3-0.6-0.6v-1.5C-444.5,298.3-444.2,298-443.8,298z"/>
		<path id="_Rectangle_4" class="st7" d="M-396.4,300.8l-4.3-0.1c-0.5,0-0.9-0.4-0.9-0.9l0,0l0.1-7.9c0-0.5,0.4-0.9,0.9-0.9l0,0
			l4,0.1c1.3,0,2.4,1.1,2.4,2.4l0,0l-0.1,5.2C-394.2,299.9-395.2,300.8-396.4,300.8L-396.4,300.8z"/>
		<path id="_Rectangle_5" class="st8" d="M-400.7,300.4h-1.8c-0.4,0-0.6-0.3-0.6-0.6v-1.5c0-0.4,0.3-0.6,0.6-0.6h1.8
			c0.4,0,0.6,0.3,0.6,0.6v1.5C-400.1,300.1-400.4,300.4-400.7,300.4z"/>
		<path id="_Rectangle_6" class="st8" d="M-400.7,297.3h-1.5c-0.4,0-0.6-0.3-0.6-0.6v-1.5c0-0.4,0.3-0.6,0.6-0.6h1.5
			c0.4,0,0.6,0.3,0.6,0.6v1.5C-400,297-400.3,297.3-400.7,297.3z"/>
		<path id="_Rectangle_7" class="st8" d="M-400.6,294.2h-2.2c-0.4,0-0.6-0.3-0.6-0.6v-1.5c0-0.4,0.3-0.6,0.6-0.6h2.2
			c0.4,0,0.6,0.3,0.6,0.6v1.5C-400,293.9-400.3,294.2-400.6,294.2z"/>
	</g>
</g>
<rect id="paupiere" x="-431.4" y="256.6" class="st1" width="21" height="11.4"/>
<text transform="matrix(0.9758 0 0 1 -448 330.6174)" class="st9 st10 st11">INFOS</text>
</svg>
