<svg version="1.1" id="Calque_1" xmlns="http://www.w3.org/2000/svg" xmlns:xlink="http://www.w3.org/1999/xlink" x="0px" y="0px"
	 viewBox="-463.7 242.1 101.6 77.9" style="enable-background:new -463.7 242.1 101.6 77.9;" xml:space="preserve">
<style type="text/css">
	.st0{fill:#F5A4B6;}
	.st1{fill:#FFFFFF;}
	.st2{fill:#2EA6DD;}
	.st3{fill:#736D9F;}
	.st4{opacity:0.76;fill:#FFFFFF;enable-background:new    ;}
	.st5{opacity:0.8;fill:#FFFFFF;enable-background:new    ;}
	.st6{fill:#F59222;}
    
   
    
     @keyframes boucheSiffle{
    0%, 100%{transform: translate(-100%, 0); fill:#F5A4B6;}
    10%{transform: translate(-150%, -54%); fill:#FFFFFF; }
    30%{transform: translate(-150%, -54%); fill:#FFFFFF;}
    31%{transform: translate(-100%, 0); fill:#F5A4B6; }
    }
    
    @keyframes jouesRoses{
    0%, 100%{fill:#F5A4B6;}
    5%{fill:#ef2c57;}
    30%{fill:#ef2c57;}
    31%{fill:#F5A4B6;}
    }
    
    @keyframes note1{
    0%, 100%{opacity:0;}
    5%{opacity:1;}
    20%{opacity:1;}
    21%{opacity:0;}
    }
    
    @keyframes note2{
    0%, 100%{opacity:0;}
    10%{opacity:1;}
    30%{opacity:1;}
    35%{opacity:0;}
    }
    
    @keyframes jouesGrosses{
    0%, 100%{transform: scale(1);}
    5%{transform: scale(1.1, 1.1);}
    30%{transform: scale(1.1, 1.1);}
    31%{transform: scale(1);}
    }
    
    @keyframes disapear {
    0%, 100%{fill:#FFFFFF;}
    1%{fill:#F5A4B6;}
    31%{fill:#F5A4B6;}
    32%{fill:#FFFFFF;}
    }
    
    #bouche{
    transform: translateX(-100%);
    animation: boucheSiffle 10s linear 5s infinite;
    }
    
    #joues ellipse{
    animation: jouesRoses 10s linear 5s infinite;
    
    }
    
    #joues{
    animation: jouesGrosses 10s linear 5s infinite;
    transform-origin: center center;
    }
    
    #sourire{
    animation: disapear 10s linear 5s infinite;
    }
    
    #note1{
    opacity:0;
    animation: note1 10s linear 5s infinite;
    }
    
    #note2{
    opacity:0;
    animation: note2 10s linear 5s infinite;
    }

    
</style>
<title>Asset 13</title>
<path class="st0" d="M-426.7,281.3c0,0-8.2-10.6-9.9-14.9c-1.8-4.5-2.9-9.3-3.3-14.2c-0.3-4.2,0.1-6.1,1.7-7.7
	c4.2-4,6.7,6.1,8.1,11.9c1.2,4,2.7,7.9,4.4,11.7c0.3,0.6,1.2,1.1,1.6,1.4c1.5,1.2,2.7,2.2,4.4,1.4c1.9-1,6.9-2.5,20.7-3.8
	c0,0,10-0.8,16.3,3.8l8.7-12.5c0.6-0.9,1-2,1-3.1c0.1-4.1,0.6-13.2,4.3-13.3c7.4-0.3,7.8,15.2,5.3,22.3c-2,5.5-8.4,14.4-11,20.2
	c0,0,0.1,16.6-5.5,24.7c-5.6,8.1-13.4,10.6-25.1,10.7s-24.2-6.4-26.3-16.1S-429.1,284.9-426.7,281.3z"/>
<circle class="st1" cx="-393.9" cy="295.1" r="9.1"/>
<path class="st1" d="M-421.3,303.3c0,0,6.5-1.6,6.2-7.1c-0.2-3.4-3.3-14.1-12.1-5.9C-429.7,292.6-431.5,304.6-421.3,303.3z"/>
<path class="st2" d="M-421.5,301.4c0,0,4.2-2,4.5-6.2c0,0-2.4-10-9.1-3.8C-428.1,293.3-429.3,302.4-421.5,301.4z"/>
<circle class="st2" cx="-393.9" cy="295.1" r="7.5"/>
<path class="st3" d="M-428.2,274.7c0.9,1.1,2.6,0.2,2.5-1.3c-0.3-4.4-4-6.7-5.7-12.2l-2.1-7c-1.4-3.3-4.3-7.1-4.6-2.6
	c-0.3,4.2,1.6,10.9,3.5,14C-432.7,268.8-430.5,271.8-428.2,274.7z"/>
<path class="st3" d="M-374,276.1c4.3-4.9,13.2-27.7,6.2-28.4c-3.3-0.3-0.6,7.1-3.6,12.7c-2.6,4.8-7.2,7-7.3,12.8c0,0.3,0,0.7,0,1
	c0.1,1.5,1.5,2.7,3.1,2.5c0.5,0,1-0.2,1.4-0.5L-374,276.1z"/>
<circle class="st4" cx="-397.6" cy="294.1" r="1.9"/>
<circle class="st5" cx="-424" cy="293.9" r="1.6"/>
<path class="st6" d="M-392,265.9c-0.8,5.7-5.8,6.2-9.1,6.8c-5.4,1.1-11.9-1.3-12.9-6.8c-0.5-3.1-0.7-7.5,5.4-13.6
	c3-3-0.5,6.3,1.9,6.4C-399.3,258.8-391.2,260.4-392,265.9z"/>
<circle id="bouche" class="st0" cx="-406.8" cy="310.5" r="2.3"/>
<g id="joues">
	
		<ellipse transform="matrix(0.8836 -0.4682 0.4682 0.8836 -191.7855 -150.6309)" class="st0" cx="-398.9" cy="310.5" rx="5.7" ry="5.2"/>
	
		<ellipse transform="matrix(0.7982 -0.6024 0.6024 0.7982 -271.129 -191.5911)" class="st0" cx="-421.5" cy="308.9" rx="4.1" ry="4.7"/>
</g>
<path id="sourire" class="st1" d="M-412.8,306c0,0,6.9,3.4,10.3-0.6c0,0,1.4-1.4-0.1-0.9C-402.5,304.5-409.6,306.5-412.8,306z"/>
    
    <g>
<path class="st2" id="note1" d="M-436.4,282.9l-3.2-0.6l-2.6,14.5c-0.3-0.1-0.6-0.2-0.9-0.2c-2.2-0.4-4.3,0.6-4.6,2.3c-0.3,1.7,1.3,3.4,3.5,3.8
	c2.2,0.4,4.3-0.6,4.6-2.3c0-0.1,0-0.3,0-0.4c0.1-0.1,0.1-0.2,0.1-0.4L-436.4,282.9z"/>
<path class="st2" id="note2" d="M-448.1,289c-2.1,0.8-4.3,0.1-4.9-1.5c-0.6-1.6,0.7-3.5,2.8-4.3c0.3-0.1,0.6-0.2,0.9-0.2l-4.2-11.5l-6.2,2.3
	l5,13.5c0,0.1,0.1,0.2,0.1,0.3v0c0.1,0.1,0.2,0.3,0.2,0.4c0.6,1.6-0.7,3.5-2.8,4.3c-2.1,0.8-4.3,0.1-4.9-1.5
	c-0.6-1.6,0.7-3.6,2.8-4.3c0.3-0.1,0.6-0.2,0.9-0.2l-4.2-11.5l-0.9-2.4l3-1.1l6.2-2.3l3-1.1l0.8,2.3l0,0.1l5,13.5
	c0,0.1,0.1,0.2,0.1,0.4c0.1,0.1,0.2,0.3,0.2,0.4C-444.7,286.3-446,288.3-448.1,289z"/>
<polygon class="st2" points="-450.6,270.3 -451.4,268 -451.4,268 "/>
    </g>
</svg>
