<svg xmlns="http://www.w3.org/2000/svg" viewBox="0 0 77.94 77.92"><defs><style>.cls-1,.cls-3,.cls-6{fill:#fff;}.cls-1{opacity:0.76;}.cls-2{fill:#f5a4b6;}.cls-4{fill:#2ea6dd;}.cls-5{fill:#736d9f;}.cls-6{opacity:0.8;}.cls-7{fill:#f59222;}</style></defs><title>Asset 13</title><g id="Layer_2" data-name="Layer 2"><g id="Layer_1-2" data-name="Layer 1"><circle class="cls-1" cx="37.2" cy="45.49" r="1.77" transform="translate(-10.45 11.11) rotate(-14.92)"/><path class="cls-2" d="M13.29,39.18S5.09,28.57,3.38,24.27A49.18,49.18,0,0,1,.11,10.12C-.22,5.9.16,4,1.84,2.42,6-1.55,8.5,8.5,9.91,14.34A85.22,85.22,0,0,0,14.33,26c.31.65,1.16,1.06,1.63,1.45,1.46,1.2,2.68,2.24,4.37,1.38C22.2,27.87,27.26,26.31,41,25c0,0,10-.81,16.3,3.83L66,16.37a5.49,5.49,0,0,0,1-3.06C67.11,9.23,67.63.13,71.26,0c7.4-.26,7.82,15.18,5.26,22.32-2,5.54-8.42,14.41-11,20.19,0,0,.11,16.59-5.49,24.68S46.68,77.82,34.91,77.92,10.72,71.5,8.63,61.83,10.91,42.83,13.29,39.18Z"/><circle class="cls-3" cx="46.12" cy="52.99" r="9.13" transform="translate(-2.85 2.62) rotate(-3.16)"/><path class="cls-3" d="M18.68,61.24s6.45-1.6,6.16-7.08c-.18-3.37-3.31-14.1-12.15-5.89C10.31,50.48,8.51,62.55,18.68,61.24Z"/><path class="cls-4" d="M18.54,59.34s4.19-2,4.53-6.24c0,0-2.35-10-9.15-3.77C11.89,51.19,10.69,60.34,18.54,59.34Z"/><circle class="cls-4" cx="46.12" cy="52.99" r="7.45" transform="translate(-2.85 2.62) rotate(-3.16)"/><path class="cls-5" d="M11.8,32.64c.89,1.11,2.63.18,2.52-1.28C14,27,10.34,24.68,8.65,19.2l-2.14-7C5.14,8.91,2.23,5.05,1.89,9.59c-.32,4.23,1.62,10.95,3.5,14A89.3,89.3,0,0,0,11.8,32.64Z"/><path class="cls-5" d="M66,34c4.34-4.89,13.19-27.72,6.21-28.37-3.29-.3-.56,7.12-3.58,12.73-2.6,4.82-7.18,7-7.32,12.84a7.74,7.74,0,0,0,0,1,2.81,2.81,0,0,0,4.47,2Z"/><path class="cls-3" d="M25.37,63.28s6.88,3.36,10.29-.57c0,0,1.4-1.37-.05-.92C35.61,61.79,28.56,63.84,25.37,63.28Z"/><circle class="cls-1" cx="42.44" cy="51.98" r="1.91" transform="translate(-2.8 2.42) rotate(-3.16)"/><circle class="cls-6" cx="15.96" cy="51.81" r="1.63" transform="translate(-2.83 0.96) rotate(-3.16)"/><path class="cls-7" d="M48,23.79c-.77,5.68-5.77,6.2-9.07,6.84-5.43,1.05-11.89-1.31-12.86-6.76-.54-3.05-.74-7.5,5.43-13.63,3-3-.52,6.29,1.92,6.35C40.72,16.76,48.77,18.3,48,23.79Z"/></g></g></svg>