<svg xmlns="http://www.w3.org/2000/svg" viewBox="0 0 125.38 132.22"><defs><style>.cls-1{font-size:5.11px;fill:#231f20;font-family:MyriadPro-Regular, Myriad Pro;}.cls-12,.cls-2,.cls-8{fill:#f5a4b6;}.cls-3{fill:#28bcbf;stroke:#27bcbf;stroke-width:3px;}.cls-12,.cls-3,.cls-7,.cls-8{stroke-miterlimit:10;}.cls-4{fill:#736d9f;}.cls-14,.cls-5,.cls-6{fill:#fff;}.cls-6{opacity:0.76;}.cls-7{fill:#cb9ec8;}.cls-12,.cls-7,.cls-8{stroke:#fff;}.cls-12,.cls-7{stroke-width:0.5px;}.cls-8{stroke-width:0.25px;}.cls-9{fill:#f59222;}.cls-10{fill:#f3d3d9;}.cls-11{fill:#3eb44a;}.cls-13{fill:#2ea6dd;}.cls-14{opacity:0.8;}</style></defs><title>Asset 21</title><g id="Layer_2" data-name="Layer 2"><g id="Layer_1-2" data-name="Layer 1"><text class="cls-1" transform="matrix(-0.98, 0.22, 0.22, 0.98, 84.21, 101.66)">J</text><path id="_Path_" data-name="&lt;Path&gt;" class="cls-2" d="M89.14,104.29s27.71,3.17,28.34-.4c.71-4.05-11.95-9.79-14.8-10.86L94.49,90a2.5,2.5,0,0,0-3.25,1.38l-3.65,9.78A2.5,2.5,0,0,0,89.14,104.29Z"/><path id="_Path_2" data-name="&lt;Path&gt;" class="cls-2" d="M53,112.67l-.66,5.57a14.21,14.21,0,0,0,.18,4.56c1.19,5.68,4,9,5.63,9.39,1.13.26,3.35-1.43,5.5-4A19.68,19.68,0,0,0,67.78,118l.42-3.55c.4-3.42-1.46-6.44-4.17-6.76l-5.38-.64C55.95,106.74,53.43,109.25,53,112.67Z"/><path class="cls-2" d="M84.61,40.1S94,29.32,93.93,28L100.16,8s1.66-4.67-.17-7.35-7.88,3.61-7.88,3.61S80.47,19.77,79.44,25.75a23.44,23.44,0,0,1-2.94,7s-1.14-2.35-21.66,1.35c0,0-9.57,1.88-14.32,7.93,0,0-8.79-7.09-13.45-8.08C23.36,33.15,6,28.12,1.66,29.17c-7,1.72,10.34,15.89,14.32,18S29.73,55,34.37,55l-.44,21.16S29,102.05,47.42,110.13c0,0,3.16,1.74,9.4,2,7.81.3,20.45-1.76,37.77-12.51,0,0,4.95-1.25,5.37-18.5.05-2.21,0-4.68-.08-7.44L95,60.16S87.83,42.9,84.61,40.1Z"/><path class="cls-3" d="M85,60.45s-4.48-.78-5.92-4.67c0,0-.45-10.06,7.61-6C89.13,51,92.68,59.31,85,60.45Z"/><circle class="cls-3" cx="57.41" cy="61.8" r="7.28" transform="translate(-12.1 14.01) rotate(-12.6)"/><path class="cls-4" d="M83.17,38.58s.47-16.35,3.69-19.29L95,7.12s1.7-4.81,3.13.78L92.28,25.64S87.89,34.94,83.17,38.58Z"/><path class="cls-4" d="M40.61,52.38S24,53.28,7.26,37.07c0,0-6.13-5.1,2.42-4.05,0,0,26.07,4.2,32.45,16.21Z"/><path class="cls-5" d="M79.66,66s-5.58,5-9.83,2.2c0,0-1.68-.92-.2-.88C69.63,67.29,76.8,67.35,79.66,66Z"/><circle class="cls-6" cx="60.6" cy="59.88" r="1.87" transform="translate(-11.6 14.66) rotate(-12.6)"/><circle class="cls-6" cx="85.46" cy="52.68" r="1.6" transform="translate(-9.43 19.91) rotate(-12.6)"/><path id="_Rectangle_" data-name="&lt;Rectangle&gt;" class="cls-2" d="M100.61,36h0a3.3,3.3,0,0,1,3.3,3.3v12a3.3,3.3,0,0,1-3.3,3.3h-1a7.74,7.74,0,0,1-7.74-7.74V44.81A8.78,8.78,0,0,1,100.61,36Z" transform="translate(-5.26 76.9) rotate(-41.87)"/><path id="_Path_3" data-name="&lt;Path&gt;" class="cls-7" d="M105.74,41l-.29-.38a2.3,2.3,0,0,0-3.28-.4h0a2.45,2.45,0,0,0-.4,3.37l.29.38a2.3,2.3,0,0,0,3.28.4h0A2.45,2.45,0,0,0,105.74,41Z"/><path id="_Path_4" data-name="&lt;Path&gt;" class="cls-7" d="M99,36.7h0A2.41,2.41,0,0,0,98.84,40l.06.07a2.26,2.26,0,0,0,3.24.18h0a2.41,2.41,0,0,0,.18-3.33l-.06-.07A2.26,2.26,0,0,0,99,36.7Z"/><path id="_Path_5" data-name="&lt;Path&gt;" class="cls-7" d="M97.15,30.85l-1.14,1c-1.32,1.2-1.7,3-.85,4h0c.85,1,2.63.81,3.95-.4l1.14-1c1.32-1.2,1.7-3,.85-4h0C100.25,29.46,98.47,29.64,97.15,30.85Z"/><path id="_Path_6" data-name="&lt;Path&gt;" class="cls-7" d="M108.09,41l-1,1c-1.21,1.11-1.5,2.82-.65,3.81h0c.85,1,2.55.88,3.76-.23l1-1c1.21-1.11,1.5-2.82.65-3.81h0C111,39.83,109.3,39.93,108.09,41Z"/><polygon class="cls-8" points="21.14 90 23.4 90.51 20.27 92.63 22.54 92.47 20.22 95.45 22.3 94.64 21.05 98.18 22.76 96.8 22.72 100.56 23.89 98.74 25.09 102.32 25.59 100.24 27.92 103.23 27.71 101.11 30.92 103.18 30.01 101.26 33.75 102.16 32.24 100.65 36.1 100.28 34.14 99.36 37.7 97.76 35.52 97.54 38.41 94.89 36.24 95.41 38.18 91.98 36.26 93.19 37.07 89.33 35.6 91.11 35.23 87.18 34.35 89.35 32.86 85.72 32.65 88.07 30.19 85.04 30.67 87.37 27.47 85.18 28.59 87.28 24.91 86.12 26.57 87.81 22.74 87.77 24.79 88.92 21.14 90"/><path class="cls-9" d="M47.86,34.84c2.23,5.14,7.07,4.3,10.35,4,5.39-.45,10.84-4.39,10.31-9.77-.3-3-1.3-7.25-8.72-11.38-3.6-2,2.16,5.78-.12,6.48C52.87,26.29,45.7,29.88,47.86,34.84Z"/><path class="cls-5" d="M111.14,99.2l5,1.7s.7.61.77.9-6-2.21-6-2.21Z"/><path class="cls-5" d="M109.62,101.1l7.66,1.45a2.66,2.66,0,0,1,.26.92c0,.26-8.11-2.09-8.11-2.09Z"/><path class="cls-5" d="M117.31,104.24l-6.12-.86-.27.32,4.94,1.3a4.82,4.82,0,0,0,.9-.35C117.34,104.38,117.31,104.24,117.31,104.24Z"/><polygon class="cls-5" points="62.58 123.77 62.56 129.41 61.34 130.66 62.25 123.75 62.58 123.77"/><polygon class="cls-5" points="59.05 124.98 59.33 131.93 58.8 132.17 57.87 132.2 58.43 124.89 59.05 124.98"/><polygon class="cls-5" points="55.95 130.48 57.05 124.36 56.62 124.12 55.31 129.61 55.95 130.48"/><path class="cls-10" d="M66.92,86.64s-8.67,8.65-8.59,10.43c0,0-5.31,6.62,3.72,13.45,0,0,9.47,1.21,22.82-4.89,0,0,9-5.07,9.18-5.36a32.67,32.67,0,0,0,2.72-8.39S88.92,76.31,78.22,78.58L72.75,79.8S70.8,81.34,66.92,86.64Z"/><path id="_Compound_Path_" data-name="&lt;Compound Path&gt;" class="cls-11" d="M94,93.17c-.43.22-2.68,1.69-3.12,1.88a18.06,18.06,0,0,1-4.75,1.39,1.35,1.35,0,0,0-1.36,1.27c-.83,3.83-12.35,17.22-16.53,16.43-7-1.31-6.89-9.61-11-13.9-1.88-3-12.45-7.68-9.2-12.52,6.07-9,18.74-10.22,21.9-9.93.46,0,.7,0,.9-.43a15,15,0,0,1,.83-1.5c2.28-3.45,5.05-6.17,9.32-6.47A14,14,0,0,1,91.1,73a.88.88,0,0,0,1.32.05q6-4.26,12.06-8.47c.44-.31.71-.57.23-1s5.85-10.07,9.05-12.34c.58-.41,1.52,4.36,2.11,5.4a23.23,23.23,0,0,0,3.86,5c1,.95,6.24,2.14,5.61,2.58-3.2,2.22-15.48,6.19-15.76,5.67s-.58-.52-1.08-.16Q102.4,74,96.27,78.25c-.43.3-.53.55-.28,1a11.61,11.61,0,0,1,1.2,3.68c.64,3.86-.87,8.54-4,10.67m-.82.16,2.85-9.9"/><path id="_Path_7" data-name="&lt;Path&gt;" class="cls-9" d="M78.75,80.1A10.9,10.9,0,0,0,64.66,86a10.59,10.59,0,0,0,6.41,13.67,10.9,10.9,0,0,0,14.09-5.89A10.59,10.59,0,0,0,78.75,80.1Z"/><path id="_Rectangle_2" data-name="&lt;Rectangle&gt;" class="cls-12" d="M56.32,78.72h0a2.81,2.81,0,0,1,2.81,2.81V91.94a2.81,2.81,0,0,1-2.81,2.81h-.89a6.6,6.6,0,0,1-6.6-6.6v-2a7.48,7.48,0,0,1,7.48-7.48Z" transform="translate(11.89 -6.35) rotate(7.56)"/><path id="_Path_8" data-name="&lt;Path&gt;" class="cls-7" d="M57.16,96l1.21.33c1.41.39,2.81-.13,3.12-1.15h0c.31-1-.59-2.17-2-2.56l-1.21-.33c-1.41-.39-2.81.13-3.12,1.15h0C54.85,94.47,55.75,95.62,57.16,96Z"/><path id="_Path_9" data-name="&lt;Path&gt;" class="cls-7" d="M57.91,91.47l1.16.32c1.35.37,2.69-.12,3-1.1h0c.3-1-.56-2.08-1.91-2.45L59,87.92c-1.35-.37-2.69.12-3,1.1h0C55.7,90,56.56,91.1,57.91,91.47Z"/><path id="_Path_10" data-name="&lt;Path&gt;" class="cls-7" d="M58.89,87.27l1.16.32c1.35.37,2.69-.12,3-1.1h0c.3-1-.56-2.08-1.91-2.45L60,83.72c-1.35-.37-2.69.12-3,1.1h0C56.69,85.8,57.54,86.9,58.89,87.27Z"/><path id="_Path_11" data-name="&lt;Path&gt;" class="cls-7" d="M59.73,83.39l1.16.32c1.35.37,2.69-.12,3-1.1h0c.3-1-.56-2.08-1.91-2.45l-1.16-.32c-1.35-.37-2.69.12-3,1.1h0C57.53,81.92,58.38,83,59.73,83.39Z"/><circle class="cls-5" cx="57.08" cy="62.11" r="9.05" transform="translate(-12.18 13.95) rotate(-12.6)"/><path class="cls-5" d="M85.47,62.6s-6.58.21-7.78-5.1c-.74-3.26-.64-14.34,10-8.89C90.57,50.08,95.53,61.11,85.47,62.6Z"/><path class="cls-13" d="M85.09,60.75s-4.54-.79-6-4.73c0,0-.46-10.2,7.72-6.06C89.25,51.18,92.85,59.59,85.09,60.75Z"/><circle class="cls-13" cx="57.08" cy="62.11" r="7.38" transform="translate(-12.18 13.95) rotate(-12.6)"/><circle class="cls-6" cx="60.31" cy="60.16" r="1.9" transform="translate(-11.67 14.61) rotate(-12.6)"/><circle class="cls-14" cx="85.53" cy="52.87" r="1.62" transform="translate(-9.47 19.93) rotate(-12.6)"/></g></g></svg>