<?xml version="1.0" encoding="utf-8"?>
<!-- Generator: Adobe Illustrator 19.1.0, SVG Export Plug-In . SVG Version: 6.00 Build 0)  -->
<svg version="1.1" id="Calque_1" xmlns="http://www.w3.org/2000/svg" xmlns:xlink="http://www.w3.org/1999/xlink" x="0px" y="0px"
	 viewBox="0 0 243.8 255.1" style="enable-background:new 0 0 243.8 255.1;" xml:space="preserve">
<style type="text/css">
	.st0{fill:#231F20;}
	.st1{font-family:'MyriadPro-Regular';}
	.st2{font-size:10.6745px;}
	.st3{fill:#F5A4B6;}
	.st4{fill:#28BCBF;stroke:#27BCBF;stroke-width:3;stroke-miterlimit:10;}
	.st5{fill:#736D9F;}
	.st6{fill:#FFFFFF;}
	.st7{opacity:0.76;fill:#FFFFFF;}
	.st8{fill:#F5A4B6;stroke:#FFFFFF;stroke-miterlimit:10;}
	.st9{fill:#F59222;}
	.st10{fill:#F3D3D9;}
	.st11{fill:#2EA6DD;}
	.st12{opacity:0.8;fill:#FFFFFF;}
	.st13{fill:#3EB44A;}
	.st14{fill:#CB9EC8;stroke:#FFFFFF;stroke-miterlimit:10;}
	.st15{fill:#F5A4B6;stroke:#FFFFFF;stroke-width:0.5;stroke-miterlimit:10;}
	.st16{fill:#CB9EC8;stroke:#FFFFFF;stroke-width:0.75;stroke-miterlimit:10;}
</style>
<text transform="matrix(-1 0 0 1 139.5234 200.7656)" class="st0 st1 st2">J</text>
<path id="XMLID_551_" class="st3" d="M148.4,208.4c0,0,55.1,19.1,58,12.1c3.3-7.9-19.9-25.4-25.2-28.9l-15.3-10
	c-2.5-1.6-5.7-1-7.2,1.3l-11.9,18.3C145.2,203.5,146,206.8,148.4,208.4z"/>
<path id="XMLID_550_" class="st3" d="M71,209l-3.9,11c-1.1,3.1-1.7,6.2-1.7,9.4c-0.2,12.1,4.1,20.2,7.2,21.7
	c2.2,1.1,7.5-1.4,13.1-5.7c5.8-4.5,10.3-11.2,13-18.8l2.5-7.1c2.4-6.8,0-13.8-5.4-15.7L85,200.1C79.6,198.2,73.4,202.2,71,209z"/>
<path class="st3" d="M168.5,75.4c0,0,24.1-17.7,24.5-20.3l21.8-38c0,0,5.5-8.8,3-15.1c-2.4-6.1-17.7,3.8-17.7,3.8
	s-30.8,26.3-35.7,38.1c-2.6,6.4-9.2,12.9-9.2,12.9s-1.3-5.3-44.8-7.1c0,0-20.4-0.5-32.8,9.6c0,0-14.7-18.5-23.7-22.6
	c-7.2-3.3-40.4-21.5-49.6-21.3c-15.1,0.3,13.8,37.1,21,43.1S49.8,80.7,59.2,83l-10.5,42.9c0,0-21.8,50.5,12.1,75.3
	c0,0,5.6,5,18.3,8.3c15.8,4.2,42.5,5.7,82.7-8.3c0,0,10.7-0.3,19.4-35.3c1.1-4.5,2.2-9.5,3.2-15.2l-3.8-29.7
	C180.5,121.1,173.7,82.6,168.5,75.4z"/>
<path class="st4" d="M160,117.1c0,0-8.8-3.6-9.9-12.2c0,0,3.7-20.7,18.2-8.7C172.7,99.8,176.1,118.3,160,117.1z"/>
<circle class="st4" cx="103.1" cy="107.3" r="15.2"/>
<path class="st5" d="M166.2,71.7c0,0,8.4-33.1,16.3-37.6l22.1-21.1c0,0,5.7-9,6,3l-20,33.5C190.7,49.5,177.5,66.4,166.2,71.7z"/>
<path class="st5" d="M73.2,80.4c0,0-34.3-5.7-61-46.4c0,0-10.2-13.2,6.8-7.2c0,0,51.2,20.5,58.8,47.8L73.2,80.4z"/>
<path class="st6" d="M146.6,125.9c0,0-13.6,7.6-21,0c0,0-3-2.6,0-1.9C125.5,124,140.1,127.4,146.6,125.9z"/>
<circle class="st7" cx="110.5" cy="104.8" r="3.9"/>
<circle class="st7" cx="164.4" cy="101.5" r="3.3"/>
<path id="XMLID_549_" class="st3" d="M205.3,141.8l-0.9-1.9c-3.4-7.4-12.2-10.7-19.6-7.3l-6.1,2.8c-6.5,3-9.4,10.8-6.4,17.3l1.6,3.5
	c1.3,2.8,4.6,4,7.4,2.7l21.3-9.8C205.3,147.9,206.6,144.6,205.3,141.8z"/>
<polygon class="st8" points="16.3,148.2 20.7,150.3 13.3,153.2 18,153.9 12,158.9 16.6,158.2 12.4,164.9 16.5,162.8 14.7,170.5 
	17.9,167.3 18.7,175.1 20.7,171.1 24.1,178.3 24.6,173.9 30.2,179.6 29.3,175.2 36.5,178.8 34.1,175 42.1,176 38.6,173.3 
	46.5,171.6 42.2,170.2 49.3,166.1 44.6,166.2 50.1,160 45.7,161.6 49.1,154.1 45.3,157.1 46.3,148.9 43.5,152.9 42.2,144.9 
	40.7,149.6 37,142.3 36.9,147.2 31.4,141.3 32.7,146.1 25.8,142.1 28.4,146.3 20.6,144.4 24.2,147.7 "/>
<path class="st9" d="M95.9,48c2.2,11.5,12.5,12,19.3,12.9c11.2,1.5,24.1-4,25.5-15.2c0.8-6.3,0.7-15.4-12.6-27.2
	c-6.4-5.7,1.8,12.8-3.2,13.2C110,32.8,93.8,36.9,95.9,48z"/>
<path class="st6" d="M195.6,208l9.4,5.7c0,0,1.1,1.6,1.1,2.2c0,0.6-11.2-7.2-11.2-7.2L195.6,208z"/>
<path class="st6" d="M191.6,211.2l14.9,6.5c0,0,0.3,1.5,0.1,2c-0.2,0.5-15.6-7.9-15.6-7.9L191.6,211.2z"/>
<path class="st6" d="M205.9,221.1l-12.1-4.6l-0.7,0.5l9.5,4.9c0,0,0.7,0,2-0.3C205.9,221.4,205.9,221.1,205.9,221.1z"/>
<polygon class="st6" points="85.4,236 82.8,247.5 79.7,249.4 84.7,235.8 "/>
<polygon class="st6" points="77.7,236.8 75.1,251.1 73.9,251.4 72,251 76.4,236.4 "/>
<polygon class="st6" points="68.8,246.6 73.9,234.7 73.1,234 67.9,244.6 "/>
<path class="st10" d="M111.2,162.3c0,0-21.6,13.7-22.3,17.3c0,0-13.8,11.1,1.5,29.1c0,0,18.7,6.8,48.7,0.4c0,0,20.8-6.2,21.2-6.7
	c1.8-2.4,7.1-9.5,9.4-15.9c0,0-8.9-35.3-31.8-35.6h-11.7C126.2,151,121.5,153.2,111.2,162.3z"/>
<circle class="st6" cx="102.3" cy="107.8" r="18.9"/>
<path class="st6" d="M160,121.7c0,0-13.5-2.6-13.5-13.9c0-7,5.2-29.5,24.5-13.6C176,98.5,181.1,123.2,160,121.7z"/>
<path class="st11" d="M160,117.7c0,0-8.9-3.7-10.1-12.4c0,0,3.7-21,18.5-8.8C172.9,100.1,176.4,118.9,160,117.7z"/>
<circle class="st11" cx="102.3" cy="107.8" r="15.4"/>
<circle class="st7" cx="109.8" cy="105.3" r="4"/>
<circle class="st12" cx="164.5" cy="101.9" r="3.4"/>
<g>
	<path id="XMLID_545_" class="st13" d="M166.5,186.9c-1,0.3-6.2,2.2-7.2,2.4c-3.4,0.7-6.8,1-10.3,0.7c-1.9-0.2-2.6,0.4-3.3,2
		c-3.4,7.4-33,29.5-41.2,26c-13.6-5.8-9.7-22.7-16-33.3c-2.5-7-21.9-21.3-13-29.7c16.5-15.7,42.9-12.3,49.2-10.3
		c0.9,0.3,1.4,0.2,2-0.5c0.8-0.9,1.5-1.8,2.4-2.7c6.2-6,13.1-10.3,21.9-8.9c8.2,1.2,14.2,5.7,19,11.8c0.8,1.1,1.4,1.2,2.7,0.7
		c9.5-4,18.9-7.9,28.4-11.8c1-0.4,1.7-0.8,0.9-2c-0.6-0.9,16.5-17.9,24.1-21c1.4-0.6,1.1,9.6,1.8,12c1.3,4.2,3.1,8.3,5.6,12
		c1.5,2.4,11.7,7.2,10.3,7.8c-7.5,3.1-34.4,5.6-34.7,4.4c-0.3-1.2-1-1.3-2.1-0.8c-9.6,4-19.2,8-28.8,11.9c-1,0.4-1.3,0.9-1,1.9
		c0.7,2.6,0.9,5.3,0.8,8c-0.5,8.2-5.7,17-13,20 M163,187.5 M173.4,168.6"/>
	<path id="XMLID_544_" class="st9" d="M141.2,153c-9.3-6.1-21.7-3.9-27.6,4.9c-6,8.8-3.3,21,6,27.1c9.3,6.1,21.7,3.9,27.6-4.9
		C153.2,171.3,150.5,159.2,141.2,153z"/>
</g>
<path id="XMLID_543_" class="st14" d="M199.7,135.1L199.7,135.1c-0.8-2.5-3.6-4-6.1-3.3l-0.2,0.1c-2.6,0.7-4,3.4-3.2,6v0
	c0.8,2.5,3.6,4,6.1,3.3l0.2-0.1C199,140.3,200.5,137.6,199.7,135.1z"/>
<path id="XMLID_542_" class="st15" d="M121.3,144.8l-2-1.1c-6.8-3.7-15.3-1.1-19,5.7l-3.4,6.3c-3.2,6-1,13.5,5,16.7l3.4,1.9
	c2.5,1.4,5.8,0.4,7.1-2.1l10.9-20.2C124.8,149.4,123.9,146.2,121.3,144.8z"/>
<g>
	<path id="XMLID_541_" class="st16" d="M106.8,176.6l1.7,1.3c2,1.5,4.8,1.2,6.1-0.5l0,0c1.4-1.8,0.8-4.4-1.2-5.9l-1.7-1.3
		c-2-1.5-4.8-1.2-6.1,0.5h0C104.2,172.5,104.8,175.1,106.8,176.6z"/>
	<path id="XMLID_540_" class="st16" d="M111.8,168.4l1.7,1.2c1.9,1.4,4.6,1.2,5.9-0.5l0,0c1.3-1.7,0.8-4.2-1.2-5.6l-1.7-1.2
		c-1.9-1.4-4.6-1.2-5.9,0.5h0C109.3,164.5,109.9,167,111.8,168.4z"/>
	<path id="XMLID_539_" class="st16" d="M116.9,161l1.7,1.2c1.9,1.4,4.6,1.2,5.9-0.5l0,0c1.3-1.7,0.8-4.2-1.2-5.6l-1.7-1.2
		c-1.9-1.4-4.6-1.2-5.9,0.5v0C114.4,157.1,114.9,159.6,116.9,161z"/>
	<path id="XMLID_538_" class="st16" d="M121.5,154.1l1.7,1.2c1.9,1.4,4.6,1.2,5.9-0.5v0c1.3-1.7,0.8-4.2-1.2-5.6l-1.7-1.2
		c-1.9-1.4-4.6-1.2-5.9,0.5v0C119,150.2,119.5,152.7,121.5,154.1z"/>
</g>
<path id="XMLID_537_" class="st14" d="M191.7,155.4l1-0.2c2.7-0.6,4.3-3.2,3.7-5.9l0,0c-0.7-2.6-3.4-4.3-6-3.7l-1,0.2
	c-2.7,0.6-4.3,3.2-3.7,5.9v0C186.4,154.3,189.1,156,191.7,155.4z"/>
<path id="XMLID_536_" class="st14" d="M205.8,146.5L205.8,146.5c-0.8-2.5-3.6-4-6.1-3.3l-0.2,0.1c-2.6,0.7-4,3.4-3.2,6v0
	c0.8,2.5,3.6,4,6.1,3.3l0.2-0.1C205.2,151.8,206.6,149.1,205.8,146.5z"/>
<path id="XMLID_535_" class="st14" d="M185.6,153.2L185.6,153.2c-0.8-2.5-3.6-4-6.1-3.3l-0.2,0.1c-2.6,0.7-4,3.4-3.2,6v0
	c0.8,2.5,3.6,4,6.1,3.3l0.2-0.1C185,158.4,186.4,155.7,185.6,153.2z"/>
</svg>
