<svg xmlns="http://www.w3.org/2000/svg" viewBox="0 0 56.75 67.74"><defs><style>.cls-1{fill:#f59221;}.cls-2{fill:#9854a0;}.cls-3{fill:#fff;}.cls-4{fill:#53c7e9;}.cls-5{fill:#2ea6dd;}.cls-6{fill:#f59222;}.cls-7{fill:#3eb44a;}.cls-8{fill:#9954a0;}.cls-9{fill:#cb9ec8;stroke:#fff;stroke-miterlimit:10;stroke-width:0.25px;}</style></defs><title>Asset 19</title><g id="Layer_2" data-name="Layer 2"><g id="Layer_1-2" data-name="Layer 1"><path class="cls-1" d="M36,21.88c0-.25,0-.45,0-.53Z"/><path class="cls-1" d="M35.53,22.84c0-.25,0-.45,0-.53Z"/><path class="cls-2" d="M9.4,35.55s-1.58-3.71,0-4.84c0,0,.56,2.16,1.31,2.33a83.7,83.7,0,0,0,20,2.78c9.66,0,8.72,0,11.18-.84a17.43,17.43,0,0,0,6.42-4.28s1.11.69,0,4.44l-11,9.94H14.21Z"/><path class="cls-2" d="M10.74,32.41s-.63-4.8,4.11-10.67c0,0-.63-8.19,4.11-12.83,0,0-3.32-2.78.79-8.66,0,0,2.37-1.24,1.9,1.86s2.69,5.1,2.69,5.1S32.7,5.81,37,7.51c0,0,4.49-3.4,2.09-4.95,0,0,0-3.4,3.44.15,0,0,2.84,2.32,0,7.89a19.3,19.3,0,0,1,2.69,12.3s2.69,7.18,2.21,8.26-7.19,4.34-12.66,4.18A74.48,74.48,0,0,1,21,34.57,76.37,76.37,0,0,1,10.74,32.41Z"/><path class="cls-3" d="M21,20.82H39s1.06,8.81-8.79,9C30.23,29.79,21.32,30.87,21,20.82Z"/><path class="cls-4" d="M25.72,20.82h9s.53,4.41-4.4,4.48C30.33,25.31,25.88,25.85,25.72,20.82Z"/><path d="M27.87,20.82h4.32A1.92,1.92,0,0,1,30.08,23,2,2,0,0,1,27.87,20.82Z"/><path class="cls-3" d="M16.83,33.88s-.14-1.73,2.07-4.23c0,0,0,4.63,1.9,4.91Z"/><path class="cls-3" d="M43.56,33.56s-.25-1.81-2.89-3.88c0,0,.83,4.46-.95,5.06a11,11,0,0,0,2.4-.57C43,33.8,43.56,33.56,43.56,33.56Z"/><polygon class="cls-5" points="6.31 59.63 22.75 66.44 24.64 42.63 6.31 34.12 6.31 59.63"/><path class="cls-6" d="M22.75,66.44a9.14,9.14,0,0,0,9.45,0l1.61-23.81s-6.64-1.24-9.17,0Z"/><path class="cls-7" d="M34.74,42.32l16.92-8.9L49.29,58.71S35.49,66,32.2,66.44l1.61-23.81Z"/><path id="_Rectangle_" data-name="&lt;Rectangle&gt;" class="cls-8" d="M2.11,42.83H7.36a.9.9,0,0,1,.9.9v7.93a.9.9,0,0,1-.9.9h-5A2.4,2.4,0,0,1,0,50.17V44.95a2.11,2.11,0,0,1,2.11-2.11Z"/><path id="_Path_" data-name="&lt;Path&gt;" class="cls-9" d="M9.35,44.71l0,.27a1.39,1.39,0,0,1-1.31,1.46h0a1.4,1.4,0,0,1-1.49-1.28l0-.27a1.39,1.39,0,0,1,1.31-1.46h0A1.4,1.4,0,0,1,9.35,44.71Z"/><rect id="_Rectangle_2" data-name="&lt;Rectangle&gt;" class="cls-9" x="6.43" y="46.65" width="2.75" height="2.75" rx="0.64" ry="0.64"/><rect id="_Rectangle_3" data-name="&lt;Rectangle&gt;" class="cls-9" x="6.43" y="49.75" width="3.47" height="2.75" rx="0.64" ry="0.64"/><path id="_Rectangle_4" data-name="&lt;Rectangle&gt;" class="cls-8" d="M51.55,42.81h4.26a.9.9,0,0,1,.9.9v7.93a.9.9,0,0,1-.9.9h-4a2.4,2.4,0,0,1-2.4-2.4V44.92A2.11,2.11,0,0,1,51.55,42.81Z" transform="translate(105.42 96.15) rotate(-179.14)"/><rect id="_Rectangle_5" data-name="&lt;Rectangle&gt;" class="cls-9" x="47.76" y="49.38" width="3.09" height="2.75" rx="0.64" ry="0.64" transform="translate(97.84 102.24) rotate(-179.14)"/><rect id="_Rectangle_6" data-name="&lt;Rectangle&gt;" class="cls-9" x="48.12" y="46.29" width="2.75" height="2.75" rx="0.64" ry="0.64" transform="translate(98.28 96.07) rotate(-179.14)"/><rect id="_Rectangle_7" data-name="&lt;Rectangle&gt;" class="cls-9" x="47.45" y="43.19" width="3.47" height="2.75" rx="0.64" ry="0.64" transform="translate(97.7 89.86) rotate(-179.14)"/></g></g></svg>