<?xml version="1.0" encoding="utf-8"?>
<!-- Generator: Adobe Illustrator 19.1.0, SVG Export Plug-In . SVG Version: 6.00 Build 0)  -->
<svg version="1.1" id="Calque_1" xmlns="http://www.w3.org/2000/svg" xmlns:xlink="http://www.w3.org/1999/xlink" x="0px" y="0px"
	 viewBox="-59.6 116 670.4 330" style="enable-background:new -59.6 116 670.4 330;" xml:space="preserve">
<style type="text/css">
	.st0{fill:#3EB44A;}
	.st1{opacity:0.84;fill:#EF9C3F;}
	.st2{fill:#F05C22;}
	.st3{fill:#F59222;}
	.st4{opacity:0.53;fill:#F05C22;}
</style>
<path class="st0" d="M116.5,116c-36.8,0-68.5,24.3-82.6,59h224.6l0,211.8H33.8c14.1,34.9,45.8,59.2,82.7,59.2h494.3V116H116.5z"/>
<rect x="-59.6" y="175" class="st1" width="339.7" height="211.9"/>
<g>
	<path class="st2" d="M197.4,346.1c-24.8-43.3-24.8-86.8,0-130.1c9.7-16.9,23.6-29.9,39.7-40.8c1.5-0.8,3-1.6,4.4-2.4
		c48.8-28.5,112-20.2,151.5,19.8c50.2,50.8,48.5,132.2-4.1,180.6c-28,25.8-61.5,36.1-99.4,32.1c-18.8-2-36.1-8.7-52.3-18.4
		C221.1,376,207.1,363,197.4,346.1z M307.3,387.1c57.5-1.6,104.8-49.8,103.1-109.2c-1.6-57.5-49.8-104.3-109.3-103.1
		c-56,1.1-102.9,48.7-102.8,106.1C197.8,340,247.2,388.8,307.3,387.1z"/>
</g>
<path class="st3" d="M301.9,174.6c59.4-1.1,107.7,45.6,109.3,103.1c1.6,59.4-45.6,107.6-103.1,109.2c-60.2,1.6-109.5-47.2-109-106.2
	C199,223.4,246,175.8,301.9,174.6z"/>
<path class="st2" d="M505.6,405.7c0-83.2,0-166.3,0-249.4c16,0,31.5,0,47.4,0c0,83.1,0,166,0,249.4
	C537,405.7,521.4,405.7,505.6,405.7z"/>
<rect x="188.6" y="174.8" class="st4" width="3.4" height="212"/>
<rect x="26.6" y="175" class="st4" width="3.4" height="212"/>
<rect x="-13.8" y="175" class="st4" width="3.4" height="212"/>
<rect x="-59.2" y="175" class="st4" width="3.4" height="212"/>
<rect x="54.3" y="175" class="st4" width="3.4" height="212"/>
<rect x="82" y="175" class="st4" width="3.4" height="212"/>
<rect x="109.6" y="175" class="st4" width="3.4" height="212"/>
<rect x="137.3" y="175" class="st4" width="3.4" height="212"/>
<rect x="163.9" y="175" class="st4" width="3.4" height="212"/>
</svg>
