<?xml version="1.0" encoding="utf-8"?>
<!-- Generator: Adobe Illustrator 19.1.0, SVG Export Plug-In . SVG Version: 6.00 Build 0)  -->
<svg version="1.1" id="Calque_1" xmlns="http://www.w3.org/2000/svg" xmlns:xlink="http://www.w3.org/1999/xlink" x="0px" y="0px"
	 viewBox="-116 116 726.8 330" style="enable-background:new -116 116 726.8 330;" xml:space="preserve">
<style type="text/css">
	.st0{fill:#3EB44A;}
	.st1{fill:#A039A8;}
	.st2{fill:#F05C22;}
	.st3{fill:#F59222;}
</style>
<path class="st0" d="M427,446h-543V116h543c54.8,0,99.3,44.5,99.3,99.3v131.4C526.2,401.5,481.8,446,427,446z"/>
<rect x="271.1" y="175" class="st1" width="339.7" height="211.8"/>
<g>
	<g>
		<path class="st2" d="M314.4,386.9c-16.2,9.7-33.5,16.4-52.3,18.4c-37.9,4-71.4-6.3-99.4-32.1c-52.6-48.4-54.3-129.8-4.1-180.6
			c39.5-40,102.7-48.3,151.5-19.8c1.4,0.8,2.9,1.6,4.4,2.4c16.1,10.9,30,23.9,39.7,40.8c24.8,43.3,24.8,86.8,0,130.1
			C344.5,363,330.5,376,314.4,386.9z M353.3,280.9c0.1-57.4-46.8-105-102.8-106.1c-59.5-1.2-107.7,45.6-109.3,103.1
			c-1.7,59.4,45.6,107.6,103.1,109.2C304.4,388.8,353.8,340,353.3,280.9z"/>
	</g>
	<path class="st3" d="M353.3,280.9c0.5,59-48.8,107.8-109,106.2c-57.5-1.6-104.7-49.8-103.1-109.2c1.6-57.5,49.9-104.2,109.3-103.1
		C306.4,176,353.4,223.6,353.3,280.9z"/>
</g>
<path class="st1" d="M-1.4,405.7c0-83.4,0-166.3,0-249.4c15.9,0,31.4,0,47.4,0c0,83.1,0,166.2,0,249.4
	C30.2,405.7,14.6,405.7-1.4,405.7z"/>
</svg>
